<?xml version="1.0" encoding="UTF-8"?>
<svg id="Calque_2" data-name="Calque 2" xmlns="http://www.w3.org/2000/svg" viewBox="0 0 1073.82 513.92">
  <defs>
    <style>
      .cls-1 {
        fill: #fff;
      }

      .cls-2 {
        stroke: #000;
        stroke-miterlimit: 10;
      }

      .cls-3 {
        fill: #95bcd3;
      }

      .cls-4 {
        fill: #a6cce0;
      }
    </style>
  </defs>
  <g id="Calque_1-2" data-name="Calque 1">
    <path class="cls-3" d="m172.82,362.19s-.5,11.5-14,18-49,13-52.5,23.5,12.5,40.5,35,40,26.5-19.5,89-30,75.5,33.5,277,21,349.5-190.5,355-205,124.5,17.5,150,26,66.5-62.5,61-71-41.5,19.5-49,14-81.5-48.5-91-49-28,5-28,5c0,0-4.5-15.5-8-27s-63.5-56.5-65-68,7.5-35.5,4-39-45.5,6.5-56,38,54.5,110.5,53,147c-1.4,34.02-113.5,26.5-127.81,16.75-.89-.61-2.14-.13-3.2.05-3.48.6-12.32,1.52-19-2.8-8.5-5.5-10.5-22.5-16-23s-33.5-1.5-65-10S276.82,25.19,253.32,13.69,68.32-17.31,19.32,31.69s7,309,38,333,115-3,115-3c0,0,121-6,160-24s44-36,44-36"/>
    <path class="cls-4" d="m390.82,317.19s-9,52,26,135,102,59,116,57,2-16-10-28-7-40-21-53-37-24-54-48-34.75-63-34.75-63h-22.25Z"/>
    <path class="cls-4" d="m279.98,416.04s-9.16,23.15-14.16,38.15,8.32,33.52,14.16,38.76,5.84-8.76,14.84-17.76,24-26,24-26l6.06-22.49"/>
    <path class="cls-2" d="m322.82,341.19s-49,43-80,53-84,30-100,32-24-12-24-12c0,0-2-7.25,0-11.13s36.44-21.34,36.44-21.34c0,0,13.56-7.53,15.56-11.53s2-8,2-8c0,0,45-4,63-5s87-16,87-16Z"/>
    <path class="cls-1" d="m363.32,266.69c4.53-3.7,17.14,2.69,17,8-.12,4.39-9.03,10.61-15,7-5.25-3.18-5.35-12.26-2-15Z"/>
    <circle cx="366.32" cy="274.69" r="4"/>
  </g>
</svg>