<svg width="160" height="187" viewBox="0 0 160 187" fill="none" xmlns="http://www.w3.org/2000/svg">
<path d="M93.2729 14C88.7729 50 118.273 110.5 118.273 110.5H159.273L152.296 157.342C152.426 157.348 152.421 157.399 152.273 157.5L152.296 157.342C148.699 157.181 41.5422 192.161 31.2729 184.5C20.6339 176.563 31.2729 171 31.2729 171C31.2729 171 16.2729 178 10.7729 167C5.27288 156 17.7729 147.5 17.7729 147.5C17.7729 147.5 3.77289 153.5 1.27289 135C-1.22711 116.5 14.2729 119.5 14.2729 119.5C14.2729 119.5 3.27289 114.5 8.77289 100C14.2729 85.5 63.7729 95.5 63.7729 95.5L70.7729 69.5L63.7729 29.5C63.7729 29.5 97.7729 -22 93.2729 14Z" fill="#4BFF47"/>
<path d="M118.273 110.5C118.273 110.5 88.7729 50 93.2729 14C97.7729 -22 63.7729 29.5 63.7729 29.5L70.7729 69.5L63.7729 95.5C63.7729 95.5 14.2729 85.5 8.77289 100C3.27289 114.5 14.2729 119.5 14.2729 119.5C14.2729 119.5 -1.22711 116.5 1.27289 135C3.77289 153.5 17.7729 147.5 17.7729 147.5C17.7729 147.5 5.27288 156 10.7729 167C16.2729 178 31.2729 171 31.2729 171C31.2729 171 20.6339 176.563 31.2729 184.5C41.9119 192.437 156.54 154.608 152.273 157.5L159.273 110.5H118.273Z" stroke="black"/>
</svg>
