<?xml version="1.0" encoding="UTF-8"?>
<svg id="Calque_2" data-name="Calque 2" xmlns="http://www.w3.org/2000/svg" viewBox="0 0 279.49 282">
  <defs>
    <style>
      .cls-1 {
        fill: none;
        stroke: #ff0;
        stroke-linecap: round;
        stroke-linejoin: round;
        stroke-width: 3px;
      }
    </style>
  </defs>
  <g id="Calque_1-2" data-name="Calque 1">
    <g id="pouce">
      <path class="cls-1" d="m83.37,154.5c7-5,21-11,21-11,0,0,25-43,29.5-47.5s16-13,16-13l31-50s-3.5-31.5,7.5-31.5c19.31,0,25,29,25,38s-24,58-18.5,64.5c2.88,3.4,13.48,7.79,29.5,5.5,14-2,34.95-2.05,44,7,10.26,10.26-3,25-2.5,28.5s13.5,13.5,12,22-8.5,16.5-10,23,6.5,7.5,5,18-15,26-15,26c0,0,1.5,6.5,0,15s-8.5,13.5-31,20-78.5-3.5-90-6-35.5-1.5-46-1-10.61-12.94-10.61-12.94c0,0-3.89-89.56,3.11-94.56Z"/>
      <path class="cls-1" d="m54.8,137.5H15.66c-7,0-12.69,5.63-12.77,12.62l-1.39,119.11c-.07,6.2,4.94,11.27,11.14,11.27h41.82c6.58,0,11.91-5.33,11.91-11.91v-119.52c0-6.39-5.18-11.57-11.57-11.57Z"/>
    </g>
  </g>
</svg>