<?xml version="1.0" encoding="UTF-8"?>
<svg id="Calque_2" data-name="Calque 2" xmlns="http://www.w3.org/2000/svg" viewBox="0 0 99.35 84.45">
  <defs>
    <style>
      .cls-1 {
        fill: #332b26;
      }
    </style>
  </defs>
  <g id="Calque_3" data-name="Calque 3">
    <path class="cls-1" d="m22.75,4.76c-5.72.3-10.51-.04-12.98,3.17-1.92,2.49-1.4,5.03-.41,10.84,1.99,11.63-.62,23.99-7.14,33.82-.97,1.46-2.05,2.96-2.2,4.7-.18,2.07,1.01,3.99,2.18,5.72,4.33,6.4,9.17,12.67,15.65,16.88s14.91,6.07,22.06,3.15c6.32-2.58,10.81-8.42,16.99-11.32,5.38-2.53,11.54-2.61,17.48-2.75s12.13-.44,17.33-3.32c5.2-2.88,9.02-9.15,7.16-14.79-1.93-5.89-9.01-8.95-10.85-14.87-.73-2.35-.53-4.91-1.31-7.24-.84-2.54-2.44-4.36-3.95-5.96C61.9.75,46.96.03,46.96.03c-9.47-.46-8.68,3.91-24.21,4.73Z"/>
  </g>
</svg>