<?xml version="1.0" encoding="UTF-8"?>
<svg id="Calque_2" data-name="Calque 2" xmlns="http://www.w3.org/2000/svg" viewBox="0 0 60.02 40.78">
  <defs>
    <style>
      .cls-1 {
        fill: #352c27;
      }
    </style>
  </defs>
  <g id="Calque_3" data-name="Calque 3">
    <path class="cls-1" d="m30.62,0c-1.95-.03-4.48.05-6.05,1.71-.48.51-.88,1.11-1.41,2.11-.66,1.24-1.19,2.58-1.82,3.84-2.3,4.55-6.23,8.25-10.91,10.27-2.39,1.03-4.99,1.65-7.15,3.1S-.56,25.14.18,27.64c.52,1.76,2.08,2.99,3.58,4.04,4.47,3.14,9.25,5.84,14.25,8.05,1.67.74,3.55,1.43,5.26.82,1.71-.6,2.74-2.3,3.91-3.69,6.54-7.76,18.89-6.64,27.57-11.89,1.76-1.07,3.4-2.44,4.4-4.24,2.25-4.08-.24-9.84-3.22-13.18-2.43-2.72-6.03-3.79-13.23-5.93,0,0-5.04-1.5-12.08-1.61Z"/>
  </g>
</svg>