<?xml version="1.0" encoding="UTF-8"?>
<svg id="Calque_2" data-name="Calque 2" xmlns="http://www.w3.org/2000/svg" viewBox="0 0 149.9 124.28">
  <defs>
    <style>
      .cls-1 {
        fill: #2e2623;
      }

      .cls-2 {
        fill: #362e29;
      }
    </style>
  </defs>
  <g id="Calque_3" data-name="Calque 3">
    <g>
      <path class="cls-2" d="m44.22,9.21c-.92,8.51-18.17,7.99-31.9,20.19-1.74,1.54-14.99,13.01-11.84,23.96,1.42,4.95,5.59,8.53,9.26,12.15,8.84,8.71,15.82,19.29,20.37,30.83,2.28,5.78,4.01,11.92,7.76,16.87,5.57,7.34,15.05,11.05,24.27,11.07,9.21.01,18.17-3.3,26.17-7.86,3.49-1.99,6.86-4.23,10.61-5.67,14.29-5.51,32.89.82,44.11-9.62,10.13-9.42,7.1-25.87,3.29-39.16-2.9-10.13-5.8-20.26-8.71-30.39-1.5-5.24-3.1-10.67-6.65-14.81-3.62-4.22-7.97-6.34-11.34-7.7C99.03.77,46.97-5.08,44.14,6.45c-.29,1.17.24,1.26.08,2.76Z"/>
      <path class="cls-1" d="m44.84,47.54c-4.24,1.38-6.59,2.19-7.61,4.42-1.06,2.32-.04,4.83,2.44,9.87,3.8,7.73,7.89,15.8,14.98,20.7,2.81,1.94,6.78,3.24,9.5,1.17,1.28-.98,2.03-2.55,3.38-3.42,1.99-1.29,4.61-.71,6.94-1.18,2.01-.41,3.76-1.62,5.37-2.9,5.38-4.29,10.1-10.61,9.22-17.43-.8-6.17-5.88-9.85-8.66-11.9-5.96-4.4-12.16-4.94-14.29-5.09-2.77-.2-8.97,1.79-21.26,5.78Z"/>
    </g>
  </g>
</svg>