<?xml version="1.0" encoding="UTF-8"?>
<svg id="Calque_2" data-name="Calque 2" xmlns="http://www.w3.org/2000/svg" viewBox="0 0 540.14 547.93">
  <defs>
    <style>
      .cls-1 {
        fill: #241d18;
      }

      .cls-2 {
        fill: #352c27;
      }
    </style>
  </defs>
  <g id="Calque_3" data-name="Calque 3">
    <g>
      <path class="cls-2" d="m193.84,57.83c-3,5-3.97,11.83-7,15-1.46,1.53-11.49,14.41-12,15-.73.86-13.18,5-16,9-23.06,32.7-36.55,25.87-68.2,50.35-35.11,27.15-64.37,62.85-79.58,104.54s-15.43,89.56,3.72,129.59c6.19,12.93,14.49,25.15,25.91,33.83,9.85,7.49,21.57,12.04,32.53,17.8,33.97,17.83,60.29,47,89.64,71.71,29.35,24.71,65.31,46.08,103.55,42.99,50.42-4.07,87.11-47.95,131.71-71.83,23.85-12.77,50.37-19.89,74.46-32.23,24.09-12.33,46.75-31.8,52.88-58.16,3.78-16.23.87-33.19,1.43-49.85,1.12-32.98,15.86-64.98,12.84-97.84-1.25-13.66-5.55-26.82-9.81-39.86-4.88-14.9-9.82-29.95-17.91-43.39-6.56-10.89-15.04-20.47-23.47-29.98-14.18-16-28.35-32-42.53-47.99-10.89-12.29-21.88-24.67-35.02-34.52-16.22-12.16-35.24-20.09-54.58-26.17C323.92,5.6,289.88.25,255.81.02c-19.09-.13-31.08.26-43.56,6.72-14.51,7.51-30.27,22.86-27.41,34.08,1.81,7.09,12,12,9,17Z"/>
      <path class="cls-1" d="m265.91,31.03c-7.28.03-12.14,4.12-15.66,7.08,0,0-11.95,9.48-11.42,23.04.04,1.09.18,2.21.68,3.18.59,1.15,1.64,2.01,2.73,2.72,6.15,4.03,14.55,4.34,20.98.77,6.38-3.54,11.6-10.72,18.87-10.09,1.32.11,2.82.45,3.84-.39.24-.2.92-.86,1.05-2.58.83-11.15-6.94-18.14-6.94-18.14-1.72-1.55-6.82-5.62-14.13-5.58Z"/>
      <path class="cls-1" d="m433,145.29c-1.81,3.09-7.1,1.39-19.33,7.35-3.05,1.49-6.08,3.08-7.34,6.3-1.04,2.64-.38,5.6-.24,8.43.66,12.53-9.18,23.7-20.71,28.64-11.53,4.95-24.49,5.01-37.03,5-4.09,0-8.45-.09-11.86-2.35-3.06-2.03-4.83-5.51-6-8.99-3.47-10.31-2.66-21.99,2.21-31.72,5.06-10.11,14.21-18.05,17.69-28.81,2.53-7.82,2.49-17.61,9.33-22.15,2.56-1.7,5.23-2.31,8.49-2.62,24.28-2.31,44.39,12.49,44.39,12.49,11.65,8.58,23.65,22.86,20.4,28.42Z"/>
      <path class="cls-1" d="m187.91,155.92c.5,8.03.85,13.14,3.38,19.5,1.75,4.4,3.5,8.79,7.96,11.52,2.86,1.75,6.31,2.18,9.64,2.57,7.59.89,15.52,1.75,22.68-.93,7.16-2.68,13.18-10.08,11.58-17.56-.18-.84-.47-1.69-1.05-2.33-.73-.8-1.8-1.15-2.77-1.61-6.12-2.9-8.54-10.23-9.95-16.85-1.41-6.62-2.81-13.94-8.11-18.14-5.63-4.46-13.66-2.75-16.98-2.08-3.13.63-11.36,2.29-15.27,9.02-1.91,3.28-1.67,7.85-1.11,16.87Z"/>
      <path class="cls-1" d="m321.81,341.25c-2.71,4.64-10.66,2.09-29.03,11.04-4.58,2.23-9.13,4.63-11.03,9.47-1.56,3.97-.58,8.41-.35,12.67.99,18.82-13.78,35.59-31.11,43.02-17.32,7.43-36.78,7.53-55.63,7.51-6.14,0-12.69-.13-17.81-3.53-4.59-3.05-7.25-8.28-9.01-13.5-5.22-15.48-4-33.03,3.32-47.64,7.61-15.19,21.35-27.11,26.57-43.27,3.8-11.74,3.73-26.45,14.01-33.27,3.85-2.55,7.85-3.46,12.76-3.93,36.47-3.47,66.67,18.76,66.67,18.76,17.5,12.88,35.52,34.33,30.64,42.69Z"/>
    </g>
  </g>
</svg>