<?xml version="1.0" encoding="UTF-8"?>
<svg id="Calque_2" data-name="Calque 2" xmlns="http://www.w3.org/2000/svg" viewBox="0 0 338.06 310.52">
  <defs>
    <style>
      .cls-1 {
        fill: #39302a;
      }

      .cls-2 {
        fill: #29221c;
      }

      .cls-3 {
        fill: #241d18;
      }
    </style>
  </defs>
  <g id="Calque_3" data-name="Calque 3">
    <g>
      <path class="cls-2" d="m97.75,25.86c-15.78,9.47-17.96,13.31-32.55,22.94-19,12.54-19.5,11-30.83,18.44-10.02,6.58-19.2,16.12-20.7,28.01-2.13,16.86,11.63,33.39,7.33,49.83-1.93,7.38-7.23,13.32-11.29,19.77-13.36,21.22-12.87,50.33,1.21,71.08,7.61,11.22,18.52,19.76,29.7,27.43,22.8,15.65,48.21,28.69,75.67,31.99,12.62,1.52,25.38.94,38.08,1.54,17.84.84,35.49,3.99,52.96,7.72,17.12,3.65,34.81,7.87,51.92,4.21,17.12-3.67,33.42-17.99,32.82-35.48-.13-3.83-1.05-7.69-.3-11.45,1.01-5.08,4.83-9.06,8.4-12.82,12.31-13.01,23.53-27.36,30.6-43.82,7.07-16.46,9.72-35.25,4.75-52.46-7.13-24.69-28.51-42.85-38.04-66.72-4.27-10.71-6.05-22.31-10.57-32.91-7.79-18.26-23.48-32.47-41.42-40.99S207.48.44,187.63.02c-11.82-.25-21.06,1.75-28.49,3.07-9.41,1.67-24.81,4.52-43.07,12.89-7.73,3.54-13.25,6.83-18.32,9.88Z"/>
      <path class="cls-1" d="m110.65,39.07c-14.81,8.88-16.85,12.49-30.55,21.53-17.83,11.77-18.3,10.32-28.93,17.31-9.4,6.18-18.01,15.13-19.42,26.28-2,15.82,10.91,31.33,6.88,46.75-1.81,6.93-6.78,12.5-10.6,18.56-12.54,19.91-12.07,47.23,1.14,66.7,7.14,10.53,17.38,18.54,27.87,25.74,21.4,14.68,45.24,26.92,71,30.02,11.84,1.42,23.82.88,35.73,1.44,16.74.79,29.62,9.11,46.01,12.61,16.06,3.43,33.94,6.44,50,3,16.06-3.44,36-21,33.21-37.71-.59-3.55-.98-7.22-.28-10.75.94-4.77,4.54-8.5,7.88-12.03,11.55-12.21,22.08-25.68,28.71-41.12,6.63-15.44,10.91-32.94,7.49-49.39-5-24-23-44-36-64-5.9-9.07-6.75-22.05-11-32-7.31-17.14-23.67-27.78-40.5-35.77s-35.66-11.01-54.29-11.4c-11.1-.23-19.76,1.64-26.73,2.88-8.83,1.57-23.28,4.24-40.41,12.1-7.25,3.33-12.43,6.41-17.19,9.27Z"/>
      <path class="cls-3" d="m104.65,67.04c-7.28.03-12.14,4.12-15.66,7.08,0,0-11.95,9.48-11.42,23.04.04,1.09.18,2.21.68,3.18.59,1.15,1.64,2.01,2.73,2.72,6.15,4.03,14.55,4.34,20.98.77,6.38-3.54,11.6-10.72,18.87-10.09,1.32.11,2.82.45,3.84-.39.24-.2.92-.86,1.05-2.58.83-11.15-6.94-18.14-6.94-18.14-1.72-1.55-6.82-5.62-14.13-5.58Z"/>
      <path class="cls-3" d="m271.74,146.3c-1.81,3.09-7.1,1.39-19.33,7.35-3.05,1.49-6.08,3.08-7.34,6.3-1.04,2.64-.38,5.6-.24,8.43.66,12.53-9.18,23.7-20.71,28.64-11.53,4.95-24.49,5.01-37.03,5-4.09,0-8.45-.09-11.86-2.35-3.06-2.03-4.83-5.51-6-8.99-3.47-10.31-2.66-21.99,2.21-31.72,5.06-10.11,14.21-18.05,17.69-28.81,2.53-7.82,2.49-17.61,9.33-22.15,2.56-1.7,5.23-2.31,8.49-2.62,24.28-2.31,44.39,12.49,44.39,12.49,11.65,8.58,23.65,22.86,20.4,28.42Z"/>
      <path class="cls-3" d="m80.65,178.93c.5,8.03.85,13.14,3.38,19.5,1.75,4.4,3.5,8.79,7.96,11.52,2.86,1.75,6.31,2.18,9.64,2.57,7.59.89,15.52,1.75,22.68-.93,7.16-2.68,13.18-10.08,11.58-17.56-.18-.84-.47-1.69-1.05-2.33-.73-.8-1.8-1.15-2.77-1.61-6.12-2.9-8.54-10.23-9.95-16.85-1.41-6.62-2.81-13.94-8.11-18.14-5.63-4.46-13.66-2.75-16.98-2.08-3.13.63-11.36,2.29-15.27,9.02-1.91,3.28-1.67,7.85-1.11,16.87Z"/>
    </g>
  </g>
</svg>