<?xml version="1.0" encoding="UTF-8"?>
<svg id="Calque_2" data-name="Calque 2" xmlns="http://www.w3.org/2000/svg" viewBox="0 0 548.89 207.79">
  <defs>
    <style>
      .cls-1 {
        fill: #0071bc;
      }

      .cls-2 {
        fill: #ccc;
      }

      .cls-3 {
        fill: #29abe2;
      }
    </style>
  </defs>
  <g id="Calque_1-2" data-name="Calque 1">
    <g id="avion">
      <path class="cls-2" d="m548.81,108.06c-2.5-22.5-65-33-65-33l-375-5S41.81-4.94,23.31,1.56c0,0,5,57,20.5,73.5,6.62,7.05,30.73,24.88,62.5,36.5,42.57,15.57,94.5,24.5,94.5,24.5l290,4s60.5-9.5,58-32Z"/>
      <path class="cls-3" d="m1.31,122.56l66-42h49.38S34.31,120.56,23.31,122.56s-22,0-22,0Z"/>
      <path class="cls-3" d="m34.51,58.31L0,33.6s9.82-1.08,18.57.94,9.74,2.02,9.74,2.02l6.2,21.76Z"/>
      <path class="cls-1" d="m548.81,108.06l-464.62-6.06c15.68,7.88,32.12,14.4,49.62,19.06,22.62,6.18,44.96,11.2,67,15l290,4c16.45-2.82,30.83-7.13,43-13,10.9-5.6,15.67-11.97,15-19Z"/>
      <path class="cls-3" d="m304.31,121.56l-135,82s16,7,36,3,198-81,198-81l-99-4Z"/>
      <path class="cls-3" d="m382.32,73.7S224.68,3.76,211.49,1.16s-42.18,0-42.18,0l111.95,72.55h101.06Z"/>
      <path class="cls-3" d="m474.45,80.56c-2.14,1-2.86,18.21,0,18.61s53.92,2.61,53.89,0-13.03-8.61-27.03-12.61-24.72-7-26.86-6Z"/>
      <rect class="cls-3" x="450.31" y="86.56" width="13" height="13" rx="4.02" ry="4.02"/>
      <rect class="cls-3" x="418.31" y="86.56" width="13" height="13" rx="4.02" ry="4.02"/>
      <rect class="cls-3" x="386.31" y="86.56" width="13" height="13" rx="4.02" ry="4.02"/>
      <rect class="cls-3" x="355.31" y="86.56" width="13" height="13" rx="4.02" ry="4.02"/>
      <rect class="cls-3" x="322.31" y="86.56" width="13" height="13" rx="4.02" ry="4.02"/>
      <rect class="cls-3" x="291.31" y="86.56" width="13" height="13" rx="4.02" ry="4.02"/>
      <rect class="cls-3" x="259.31" y="86.56" width="13" height="13" rx="4.02" ry="4.02"/>
      <rect class="cls-3" x="227.31" y="86.56" width="13" height="13" rx="4.02" ry="4.02"/>
      <rect class="cls-3" x="195.31" y="86.56" width="13" height="13" rx="4.02" ry="4.02"/>
      <rect class="cls-3" x="163.31" y="86.56" width="13" height="13" rx="4.02" ry="4.02"/>
      <path class="cls-1" d="m279.35,178.09s2.37,11.46,8.17,12.96,31.75,0,31.75,0c0,0,2.46-1.46,4.25-6.48s-1.21-24.44-1.21-24.44l-42.96,17.96Z"/>
      <path class="cls-3" d="m312.81,164.06s-1.5,2.5-.5,13.5,4.89,13,6.5,13.5,4.21-2.98,5-7,.05-22.43-1-24-10,4-10,4Z"/>
    </g>
  </g>
</svg>