<?xml version="1.0" encoding="UTF-8"?>
<svg id="Calque_2" data-name="Calque 2" xmlns="http://www.w3.org/2000/svg" viewBox="0 0 227.06 214.26">
  <defs>
    <style>
      .cls-1 {
        fill: #2e2725;
      }

      .cls-1, .cls-2 {
        stroke: #000;
        stroke-miterlimit: 10;
      }

      .cls-2 {
        fill: #e7dad3;
      }
    </style>
  </defs>
  <g id="corp_vache">
    <path id="corp" class="cls-2" d="m.41,43.74c.74-1.04,1.9-2.57,3.44-4.3,3.66-4.13,7.94-8.33,25.79-16.92,17.35-8.35,21.9-9.63,26.24-10.43,5.15-.96,8.99-1.22,15.52-1.23,7.9-.02,13.29,1.16,28.53,1.23,15.4.08,37.41-1.55,64.4-9.61,4.25-1.27,24.9-4.75,34.47,2.41,1.75,1.31,4.36,3.91,9.38,6.55,3.78,1.99,6.37,2.66,9.89,5.48,0,0,0,0,0,0,0,0,2.74,1.64,4.64,4.7,3.02,4.85,2.37,12.25,2.37,12.25-1.19,13.49.31,27.1-.6,40.61-.46,6.92-.99,17.09-1.04,29.66,1.34,3.04,3.11,8.16,3.14,14.68.04,9.57-3.72,16.6-5.6,19.64-6.71-10.06-6.38-15.97-5.89-18.48.26-1.33,1.31-5.53,2.35-9.28.64-2.34,1.21-4.26,1.6-5.55.44-16.05.21-32.89-.91-50.44-.24-3.81-.52-7.57-.84-11.29-.16,6.07-.67,12.64-1.68,19.62-.4,2.74-.85,5.39-1.34,7.94-.13,5.28-.45,10.84-1.01,16.66-1.14,11.83-3.09,22.57-5.37,32.09,3.39,6.93,6.78,13.86,10.17,20.8-5.34,15.15-9.02,26.74-10.43,31.98-.28,1.04-.73,3.45-1.64,8.27-.48,2.54-.8,4.37-.37,6.71.24,1.32.6,1.65.97,3.43.24,1.15.69,3.33.4,5.07-.5,3.04-2.94,3.04-5.62,6.78-3.41,4.76-2.35,8.92-5.56,10.21-.66.26-.93.18-2.91.18-7.98,0-10.76,1.33-11.58.12-.39-.58-.64-2.17,3.73-7.23.36-2.31,1.05-5.09,2.39-8.05.45-1,.93-1.92,1.42-2.76.44-3.28,1.28-7.13,2.83-11.25.59-1.55,1.22-3,1.86-4.32.67-7.9,1.34-15.8,2.01-23.7-1.84-3.45-3.72-6.93-5.66-10.43-3.19-5.77-6.4-11.38-9.61-16.84-.64-1.55-1.52-3.93-2.24-6.93-.91-3.85-.74-5.3-1.57-7.53-.76-2.05-2.39-4.8-6.26-7.45-14.06,3.32-30.51,6.23-48.97,7.71-23.26,1.88-43.91,1.03-60.99-.78-.35,8.25-1.9,14.51-3.24,18.67-2.63,8.18-4.75,9.25-6.09,16.88-.78,4.43-.64,7.34-2.65,11.63-1.66,3.56-3.88,6.09-5.52,7.68-.06,4.92.05,8.83.15,11.4.25,6.36.67,9.79-1.38,13.52-.84,1.53-1.82,2.6-2.49,3.25-1.59,1.66-3.18,3.33-4.77,4.99-.04,1.07-.28,3.56-2.09,5.66-2.22,2.58-5.35,2.91-7.45,3.13-5.09.54-9.13-1.51-10.96-2.61,2.71-4.77,5.42-9.54,8.12-14.31l9.17-24.97c-.4-3.32-.66-7.05-.67-11.11,0-4.9.36-9.33.89-13.19-1.08-.53-1.81-1.18-2.31-1.79-2.71-3.27-2.07-9.19,1.34-14.94"/>
    <path id="tache_01" class="cls-1" d="m9.66,35.13c.39,1.12,4.08,1.19,6.54.73,4.21-.79,5.71-3.29,8.27-2.46.96.31,1.8,1.07,3.48,2.59,2.03,1.84,2.06,2.49,2.95,2.66,2.14.41,3.1-3.13,5.7-3.19,2.51-.05,4.76,3.18,5.65,5.31.74,1.78.25,2.1.89,3.58,1.65,3.83,7,6.52,9.28,5.03,1.65-1.08,1.73-4.38,1.73-4.7.02-1.93-.71-3.12,0-3.86.7-.73,1.85-.01,2.57-.78.68-.72.62-2.37-.17-3.24-.93-1.02-2.3-.31-3.69-1.57-.42-.38-1.02-1.1-.83-1.48.23-.45,1.4-.08,3.51-.04.46,0,1.91.04,2.91-.15,2.11-.41,2.79-1.93,4.99-3.96,3.55-3.25,5.79-2.97,5.91-4.43.21-2.66-7.1-4.95-6.82-5.76.12-.36,4.04,2.21,6.93.89,2.6-1.18,4.3-5.44,3.02-7.71-2.3-4.09-14.11-1.43-18.38-.47-4.35.98-8.88,2.47-22.79,9.58-12.89,6.59-22.34,11.47-21.66,13.42Z"/>
    <path id="tache_02" class="cls-1" d="m80.22,11.24c-.31,3.42-.1,7.79,2.7,10.38,2.03,1.88,3.6,1.18,5.22,3.06,3,3.49-.85,8.01,1.94,12.3,2.09,3.21,5.07,1.93,6.71,5.14,1.49,2.92-.6,4.7.15,10.29.24,1.79.9,6.71,3.06,7.23,2.39.57,3.97-4.9,10.58-9.84,3.18-2.37,3.35-1.52,8.45-4.49,10.08-5.87,11.7-10.58,15.85-9.97,4.46.65,4.58,6.39,8.72,6.86,6.04.68,13.87-10.61,11.48-14.98-1.88-3.43-9.19-.98-11.25-5.07-1.57-3.12,1.31-7.25,1.57-7.6,2.19-3.05,5.66-1.57,9.24-4.25,2.46-1.84,3.65-4.42,4.27-6.27-12.57,3.52-28.29,6.72-46.53,7.76-11.89.68-22.7.31-32.14-.55Z"/>
    <path id="tache_03" class="cls-1" d="m75.84,73.65c-1.41.45-1.82,2.93-2.03,4.2-.48,2.89.62,3.7.99,7.5.45,4.69-1.05,6.38.45,8.23.92,1.13,1.62.66,4.09,2.43,2.61,1.87,2.7,2.99,3.73,2.98,2.16,0,4.79-5,4.32-9.69-.21-2.08-.97-3.45-2.5-6.11-.76-1.33-6.02-10.51-9.06-9.54Z"/>
    <path id="tache_04" class="cls-1" d="m108.27,60.06c-1.39-.25-3.81,2.28-4.07,5.09-.38,4.22,4.49,4.99,6.25,10.95,1.5,5.11-.64,9.44,1.64,10.7,1.25.7,2.63-.2,4.06.98,1.24,1.02.86,2.24,1.83,2.76,1.47.78,4.83-.69,5.72-3.09,1.12-3.05-2.39-5.87-.84-8.61.58-1.02,1.17-.81,1.57-1.84.88-2.33-1.76-4.35-.89-5.98.64-1.21,2.31-.53,3.41-1.84,1.48-1.77.75-5.76-.84-6.32-1.77-.62-5.26,2.8-6.26,6.6-.89,3.36.25,6.7.17,6.71-.1.02.12-5.45-3.07-7.94-1.79-1.39-2.91-.5-4.82-1.97-2.93-2.26-2.28-5.9-3.84-6.19Z"/>
    <path id="tache_05" class="cls-1" d="m128.34,42.97c-1.75-.6-4.98,1.93-6.27,4.74-.46,1-1.1,2.74-2.34,4.54-.27.39-.61.79-1.07,1.21-1.38,1.28-2.04,1.14-2.91,2.4-.96,1.39-1.92,4.09-.5,5.7.84.95,2.37,1.37,3.58.95,1.47-.51,2.08-2.13,2.96-4.47.88-2.33,1.05-4.16,1.34-4.14.43.03-.36,4.03,1.57,5.37,1.15.8,2.99.45,4.14-.28,1.35-.86,1.08-1.83,2.55-3.84,1.94-2.63,3.73-2.78,3.65-3.99-.08-1.27-2.06-1.2-3.97-3.41-2.05-2.37-1.38-4.33-2.73-4.79Z"/>
    <path id="tache_06" class="cls-1" d="m141,55.4c-1.34-.74-4.42,1.23-5.9,3.75-1.87,3.18.13,5.05-1.73,9.75-1.07,2.71-2.29,3.5-1.82,4.98.53,1.63,2.32,1.56,3.86,4.08.74,1.21.45,1.43,1.31,2.93.42.73,1.55,2.7,2.99,3.49,2.86,1.56,8.32-.35,9.7-4.11,1.16-3.17-1.03-6.42-1.81-7.57-2.05-3.03-3.71-2.52-5.31-4.86-3.28-4.82.77-11.3-1.29-12.44Z"/>
    <path id="tahce_07" class="cls-1" d="m185.86,41.97c-1.06-2.96-6.82-3.52-10.43-3.88-7.42-.72-9.57,1.25-13.42-.89-2.54-1.41-3.05-3.07-4.84-2.91-1.37.13-1.93,1.17-5.66,6.26-3.37,4.6-3.99,5.22-4.02,6.71-.05,2.53,1.71,2.9,1.49,5.44-.24,2.75-2.41,3.49-2.09,5.89.17,1.26.92,2.12,1.79,3.13,1.6,1.86,2.86,2.03,4.62,3.35,3.31,2.5,2.51,4.67,4.32,5.29,3.74,1.29,6.53-8.2,15.21-9.99,3.24-.67,6.92-.18,7.75-2.16.56-1.33-.67-2.6.15-3.8,1-1.48,3.42-.39,4.55-1.86.74-.96.07-1.9,0-4.62-.09-3.79,1.14-4.44.6-5.96Z"/>
    <path id="tache_08" class="cls-1" d="m212.99,15.81c-1.41-.13-3.4,2.89-3.58,5.66-.25,3.88,3.17,5.39,2.61,8.94-.44,2.81-3.1,5.1-4.17,4.7-1.46-.55.55-5.86-1.49-7.16-1.91-1.22-6.73,1.48-8.87,5.37-2.01,3.64-1.63,8.31-.07,11.55,1.33,2.77,2.81,3,3.13,5.52.34,2.7-1.17,3.93-.45,6.63.37,1.38,1.4,3.44,2.55,3.43,2.4,0,3.45-8.98,5.2-8.87.95.06,1.72,2.77,1.94,5.29.53,6.11-2.45,8.3-4.25,16.32-1.03,4.58-1.83,8.39.07,12,1.83,3.48,5.3,5.1,7.29,5.83.15-4.4.48-11.43,1.36-20.06,1.55-15.19,3.08-18.66,3.2-28.92.13-11.13-1.44-25.96-4.47-26.24Z"/>
  </g>
</svg>