<?xml version="1.0" encoding="UTF-8"?>
<svg id="Calque_2" data-name="Calque 2" xmlns="http://www.w3.org/2000/svg" viewBox="0 0 186.12 180.48">
  <defs>
    <style>
      .cls-1 {
        fill: #e69989;
      }

      .cls-1, .cls-2, .cls-3, .cls-4, .cls-5, .cls-6, .cls-7, .cls-8 {
        stroke: #000;
      }

      .cls-1, .cls-4, .cls-5, .cls-6, .cls-7 {
        stroke-linecap: round;
        stroke-linejoin: round;
      }

      .cls-2 {
        fill: #f15152;
      }

      .cls-2, .cls-3, .cls-8 {
        stroke-miterlimit: 10;
      }

      .cls-3, .cls-7 {
        fill: none;
      }

      .cls-9 {
        opacity: .3;
      }

      .cls-9, .cls-5 {
        fill: #fff;
      }

      .cls-6 {
        fill: #e7dad3;
      }

      .cls-10 {
        fill: #645f57;
      }

      .cls-8 {
        fill: #2e2725;
      }

      .cls-11 {
        fill: #928c85;
      }
    </style>
  </defs>
  <g id="tete_vache">
    <path id="tete" class="cls-8" d="m178.04,102.61c-7.01,4.68-16.51-1.37-31.53,6.26-7.45,3.79-12.5,9.03-15.65,12.97-.17,2.99-.95,7.94-4.47,12.07-2.01,2.35-4.42,3.61-9.17,6.04-8.83,4.51-10.36,4.21-16.1,7.16-8.83,4.53-14.46,9.81-15.24,8.94-.6-.66,2.37-4.11,1.79-4.66-.72-.67-4.8,4.85-8.85,4.1-3.14-.58-5.49-4.8-5.65-8.39-.11-2.63,1.07-4.6,1.9-6.04,2.74-4.76,8.4-14.6,9.8-24.19.54-3.73.2-5.74,1.64-9.69,1.29-3.54,3.12-6.16,4.47-7.83,1.59-1.52,3.63-3.94,4.4-7.3,1.03-4.47-1.12-6.55-.63-12.52.17-2.15.67-8.31,3.91-9.35,2.43-.78,5.48,1.62,6.93,3.8,2.26,3.39,1.25,7.15,1.08,7.75,20.28-29.73,33.03-53.33,41.18-70.14,3.09-6.37,5.04-10.79,8.5-11.07,16.03-1.28,42.32,88.32,21.69,102.07Z"/>
    <path class="cls-6" d="m80.21,141.57c1.23-4.85,1.95-8.66,2.8-8.61.82.05.46,3.58,2.46,4.64,1.74.92,4.42-.52,5.96-1.79,4.51-3.72,3.26-9.38,6.05-10.12,2.3-.61,3.69,3.08,7.04,2.57,2.23-.34,2.55-2.12,5.14-2.4,2.59-.29,3.36,1.36,4.75.73,2.26-1.03.72-5.58,3.8-8.05,1.34-1.07,2.23-.7,2.63-1.62.91-2.11-3.68-4.38-3.35-7.83.2-2.11,2.21-4.32,4.53-4.47,2.78-.18,4.8,3.89,5.59,5.42,1,1.95.86,2.64,2.01,4.86,1.07,2.08,2.32,3.6,3.23,4.58-.67.79-1.33,1.57-2,2.36-.01,1.77-.29,5.28-2.38,8.99-1.45,2.56-3.22,4.26-4.46,5.27-1.83,1.15-4.63,2.83-8.15,4.64-7.78,4-9.77,3.84-15.88,6.96-8.9,4.55-13.56,9.42-14.47,8.52-.32-.32-.19-1.37,2.14-4.83-.67.83-2.63,3.02-5.9,3.7-1.54.32-2.95.61-3.83-.13-1.56-1.32.05-4.58,2.28-13.39Z"/>
    <path class="cls-6" d="m151.57,4.39c-2.66,4.63,1.36,7.75-.74,12.43-1.94,4.34-6.59,4.27-7.9,9.47-.27,1.08-.56,2.19,0,3.2,1.36,2.47,5.91,1.07,11.85,1.94,2.02.29,11.54,1.68,14.91,8.27,1.45,2.85,2.1,7.34,0,10.21-2.47,3.39-6.26,1.12-10.51,4.99-3.4,3.1-2.91,6.33-6.41,7.6-2.16.78-3.13-.16-5.22,1.04-.35.2-3.3,1.97-3.5,5.29-.04.62-.06,2.57,1.27,4.1,1.5,1.73,3.06,1,6.56,2.61,2.02.93,4.02,1.85,4.99,3.8,1.39,2.78-.56,5.17.82,6.41,1.28,1.15,3.11-.75,5.81.15,2.6.87,2.66,3.23,5.29,5.14,3.21,2.34,5.82-.02,7.68,1.79,2.83,2.76-.55,9.78.65,10.31.82.36,3.13-2.63,4.62-5.29,3.75-6.71,6.46-18.78-.17-49.39-2.97-13.7-6.23-23.82-11.98-34.1-7.58-13.53-11.57-14.08-13.24-13.84-2.73.39-4.55,3.46-4.78,3.86Z"/>
    <path class="cls-11" d="m76.34,91.99c.28-.37,2.58,2.05,6.47,2.47.95.1,1.74.09,5.68-.68,2.8-.55,5.24-1.04,7.23-1.45.25.08.57.25.82.56.5.64.47,1.65-.07,2.53-2.71.71-5.04,1.16-6.82,1.45-4.02.66-5.4.55-6.67.19-1.58-.45-2.7-1.19-3.32-1.6-1.93-1.3-3.56-3.15-3.32-3.47Z"/>
    <path class="cls-10" d="m76.34,91.99c-.23.17,1.33,4.56,5.33,6.48,1.55.75,3.21.79,6.52.86,3.45.07,5.67.09,7.19-1.45.86-.88,1.2-1.94,1.34-2.65-3.14.96-5.81,1.37-7.72,1.57-3.54.37-5.54.55-7.71-.37-3.43-1.45-4.76-4.58-4.96-4.43Z"/>
    <path id="corne" class="cls-7" d="m76.05,91.71c.13.93.51,2.73,1.88,4.42,2.6,3.2,6.56,3.31,7.18,3.32,2.8.36,5.06.11,6.56-.17,2.04-.38,3.34-.63,4.33-1.76,1.38-1.56,1.77-4.28.67-5.28-.54-.49-1.33-.48-5.14.38-3.17.71-4.6,1.15-5.46,1.33-2.16.47-5.41.39-10.03-2.24Z"/>
    <path id="oeil" class="cls-5" d="m91.88,112.08c-1.18,1.41-.7,3.86.37,4.4,1.65.83,5.44-2.44,4.96-3.95-.38-1.2-3.78-2.29-5.33-.45Z"/>
    <ellipse id="pupille" class="cls-6" cx="93.68" cy="113.6" rx=".35" ry=".25"/>
    <path class="cls-1" d="m74.16,142.02c2.07-1.36,4.99-.93,6.53.7,3.1,3.28.64,11.46-2.76,12.24-2.07.48-4.5-1.78-5.52-4.08-1.24-2.81-.99-7.07,1.74-8.86Z"/>
    <circle class="cls-3" cx="94.93" cy="119.68" r="60.3"/>
    <circle class="cls-9" cx="94.93" cy="119.68" r="60.3"/>
    <rect id="antenne" class="cls-4" x="31.22" y="39.58" width="2.68" height="54.86" rx="1.34" ry="1.34" transform="translate(-38.95 46.13) rotate(-47.8)"/>
    <circle id="bout_antenne" class="cls-2" cx="10.06" cy="45.57" r="9.56"/>
  </g>
</svg>