<?xml version="1.0" encoding="UTF-8"?>
<svg id="Calque_2" data-name="Calque 2" xmlns="http://www.w3.org/2000/svg" viewBox="0 0 310.23 156.93">
  <defs>
    <style>
      .cls-1, .cls-2 {
        fill: #fff;
      }

      .cls-2, .cls-3 {
        stroke: #000;
        stroke-linecap: round;
        stroke-linejoin: round;
      }

      .cls-4 {
        fill: #9be2ed;
      }

      .cls-3 {
        fill: none;
      }
    </style>
  </defs>
  <g id="nuage_05">
    <path class="cls-1" d="m157.77,56.34c3.82.37,7.67.7,11.54,1,31.04,2.38,60.71,2.14,88.8,0,6.96,11.5,13.91,23,20.87,34.5,2.85.03,8.31.53,14.21,4,4.91,2.89,8.05,6.62,9.77,9,7.06,9.56,6.46,17.03,6.22,19-1.67,13.54-18.33,26.03-41.29,24.5-8.86-.54-18.04-1.23-27.53-1-13.62.33-27.23.67-40.85,1-13.32-2.33-26.64-4.67-39.96-7-21.9-.33-43.81-.67-65.71-1-9.77.67-19.54,1.33-29.31,2-7.99,1.33-15.98,2.67-23.98,4-7.1-1.67-14.21-3.33-21.31-5l5.33-15,34.63-9c2.07-2.67,4.14-5.33,6.22-8,20.72-3.67,41.44-7.33,62.16-11,.3-10,.59-20,.89-30l29.31-12Z"/>
    <path class="cls-4" d="m306.52,133.84c-1.01,1.72-9.42,15.61-23.53,16-5.12.14-9.29-1.54-11.99-3-1,1.34-4.58,5.82-10.66,7-8.27,1.61-14.3-4.2-15.1-5-2.74,2.17-8.63,6.17-16.87,7-11.87,1.19-20.55-5.02-23.09-7,7.62-.09,20.22-1.44,33.75-9,6.72-3.76,12.02-8.13,15.98-12,9.25,5.74,17.43,8.54,23.09,10,11.09,2.86,16.46,1.63,18.65,1,4.36-1.25,7.66-3.38,9.77-5Z"/>
    <path class="cls-3" d="m271.23,147.15c-1,1.61-2.74,4.35-9.56,6.19-10.2,2.75-15.83-3.53-16.44-4.19"/>
    <path class="cls-3" d="m254.12,133.84c-1.25,3.9-4.48,12.09-11.99,17.5-10.76,7.75-25.83,6.57-38.19-3"/>
    <path class="cls-2" d="m213.68,141.43c-1.03,1.49-10.06,14.03-25.44,13.89-14.44-.13-23.05-11.35-24.26-12.98-21.61-1-43.22-2-64.83-3"/>
    <path class="cls-2" d="m165.76,141.34c-5.18,3.37-18.04,10.68-35.52,10-18.63-.73-31.6-10.11-36.41-14"/>
    <path class="cls-2" d="m96.5,135.34c-2.7,7.61-8.84,13-15.98,14-10.54,1.48-17.31-7.39-17.76-8"/>
    <path class="cls-2" d="m62.75,142.34c-1.78,1.7-7.09,6.3-15.1,7-8.73.77-15.01-3.6-16.87-5"/>
    <path class="cls-2" d="m60.09,115.34c.23-.88,2.23-8.05,8.88-11,7.36-3.26,13.74,1.62,14.21,2"/>
    <path class="cls-2" d="m72.52,125.34c-.69-1.04-10.37-15.16-26.64-14-15.2,1.08-23.17,14.58-23.98,16"/>
    <path class="cls-2" d="m32.56,144.34c-.77.98-7.34,9.11-16.87,8-5.91-.69-14.16-5.05-15.1-13-.56-4.76,1.67-9.36,4.44-12,5.04-4.8,13.51-4.67,20.42,1"/>
    <path class="cls-2" d="m186.19,84.34c-4.3-10.85-13.91-17.61-23.98-17-13.43.81-20.08,14.28-20.42,15"/>
    <path class="cls-2" d="m127.58,75.34c-2.83-11.7,2.73-23.89,12.43-28,9.09-3.85,19.67.29,24.86,10"/>
    <path class="cls-2" d="m162.21,115.34c-3.63-26.87-25.34-45.09-47.07-42-18.82,2.68-34.41,20.89-36.41,44"/>
    <path class="cls-2" d="m250.13,57.34c10.02-4.8,21.5-1.31,27.53,8,5.18,8,5.54,19.06.89,28"/>
    <path class="cls-2" d="m233.25,81.34c3.18-1.3,10.26-4.78,15.1-13,7.6-12.92,3.81-27.57,2.66-32-4.34-16.77-17.33-29.59-31.97-34-14.32-4.31-34.03-1.71-46.18,15-13.09,18.01-8.58,40.31-7.99,43"/>
    <path class="cls-3" d="m253.68,108.34c7.13-11.54,18.82-17.81,30.19-16,13.76,2.19,27.18,16.21,25.75,32-1.07,11.8-10.09,20.95-19.54,24-14.41,4.65-25.81-6.18-26.64-7"/>
    <path class="cls-4" d="m305.63,134.84c-13.61,8.26-28.04,4.96-38.63-4.5-8.4-7.5-10.82-18.02-11.54-22,.81,10.55-3.68,20.68-11.54,26-9.96,6.74-20.87,3.35-23.53,2.5-1.15-.37-2.07-.74-2.66-1-.59,1-1.18,2-1.78,3-1.32,2.38-3.3,5.3-6.22,8-1.07.99-2.12,1.81-3.11,2.5,4.63.95,17.59,2.88,31.08-5,7.45-4.35,12.31-10.08,15.1-14l15.98,6,23.98,6c4.74-3.33,8.14-4.17,12.88-7.5Z"/>
    <path class="cls-2" d="m225.26,137.34c11.04-17.23,7.09-41.03-7.1-52-15.02-11.61-37.6-5.85-47.07,14"/>
    <path class="cls-4" d="m218.6,138.84c-1.85.98-4.89,2.26-8.75,2.45-5.88.29-10.09-2.43-12.56-3.45-5.87-2.42-15.15-11.19-16.87-23-1.96-13.43,6.2-28.49,20.42-35-3.05.01-11.37.51-19.54,7-7.06,5.62-10.3,12.77-11.54,16-1.57-.81-11.13-5.95-14.21-18-1.68-6.56-.68-12.22,0-15-1.89.66-4.98,2.04-7.99,5-2.16,2.12-3.57,4.35-4.44,6,3.3,2.77,8.2,7.57,12.43,15,4.49,7.89,6.3,15.34,7.1,20-31.43,14.36-57.11,8.82-62.16-4-5.54-14.06,13.85-36.58,15.1-38-4.31.56-11.58,2.26-18.65,8-5.56,4.52-8.62,9.6-10.66,13-2.01,3.35-4.78,8.05-6.22,15-.67,3.26-.85,6.05-.89,8h-.89c.08-1.97.32-4.35.89-7,.5-2.33,1.14-4.35,1.78-6-.71-.34-7.73-3.55-14.21,1-4.22,2.96-5.77,7.51-6.22,9-3-1.48-8.37-3.56-15.1-3-13.35,1.11-21.43,11.73-23.09,14l3.55,3c-6.36-5.14-13.58-6.35-18.65-3-3.77,2.49-7.11,8.1-6.22,14,1.08,7.14,7.73,10.09,9.77,11,6.16,2.74,11.72.64,13.32,0,4.74-1.89,7.62-5.31,8.88-7-.19.1-.89.48-.89,1s.64.86.89,1c6.23,3.52,12.43,3,12.43,3,7.19-.6,13.07-3.57,16.87-6l.89-1c1.48,1.62,4.43,4.42,8.88,6,1.26.45,4.76,1.69,8.88,1,8.62-1.44,13.35-9.48,14.21-11,5.18,3.98,21.6,15.49,43.51,13,11.06-1.26,19.59-5.63,24.86-9,2.53,2.87,12.69,13.75,25.75,13,3.68-.21,6.69-1.23,8.88-2,9.92-3.5,16.66-9.8,20.42-14Z"/>
    <path class="cls-4" d="m188.41,4.84c-9.96,12.17-13.37,29.4-8.88,45,6.68,23.19,27.04,29.6,28.42,30-3.22-.73-8.27-1.37-14.21,0-3.21.74-5.9,1.89-7.99,3-1.39-2.78-4.1-7.3-8.88-11-2.6-2.02-5.11-3.24-7.1-4-.23-.24-.54-.58-.89-1-8.18-9.95-6.05-29.43,0-42,5.74-11.93,15.05-17.68,19.54-20Z"/>
    <path class="cls-4" d="m150.22,71.84c-1.29.92-2.85,2.21-4.44,4-1.08,1.21-2.35,2.86-3.55,5-1.63-1.31-3.7-2.74-6.22-4-3.38-1.7-6.48-2.55-8.88-3-.28-1.97-1.06-8.94,2.66-16,4.43-8.41,11.91-10.62,13.32-11-.48,1.29-2.99,8.35,0,16,2.07,5.29,5.66,8.02,7.1,9Z"/>
  </g>
</svg>