<?xml version="1.0" encoding="UTF-8"?>
<svg id="Calque_2" data-name="Calque 2" xmlns="http://www.w3.org/2000/svg" viewBox="0 0 206.57 109.61">
  <defs>
    <style>
      .cls-1, .cls-2 {
        fill: #fff;
      }

      .cls-2 {
        stroke: #000;
        stroke-linecap: round;
        stroke-linejoin: round;
      }

      .cls-3 {
        fill: #9be2ed;
      }
    </style>
  </defs>
  <g id="nuage_04">
    <path class="cls-1" d="m50.09,39.61c4.3-2.67,8.59-5.33,12.89-8,20.75-3.27,31.73-5,31.73-5,0,0,21.41.7,61.48,2,8.92,7.67,17.85,15.33,26.77,23-12.89,13.33-25.78,26.67-38.67,40-27.43.67-54.87,1.33-82.3,2-3.97-18-7.93-36-11.9-54Z"/>
    <path class="cls-2" d="m155.7,82.11c-1.79,2.54-19.56,26.83-50.57,27-24.86.14-40.95-15.32-44.12-18.5"/>
    <path class="cls-2" d="m83.81,28.61c-4.63-6.08-12.65-8.51-19.83-6-7.15,2.5-11.95,9.36-11.9,17"/>
    <path class="cls-2" d="m67.94,93.61c-13.18,11.39-31.15,14.09-45.61,7-.92-.45-21.17-10.8-21.81-32C0,51.37,12.65,34.39,30.26,31.61c19.58-3.09,33.14,13.29,33.71,14"/>
    <path class="cls-2" d="m171.07,47.61c5.12-6.52,4.09-15.96-1.98-21-5.67-4.71-14.3-4.39-19.83,1"/>
    <path class="cls-2" d="m152.23,39.61c.67-20.33-14.64-37.47-33.71-39-17.61-1.41-34.34,10.81-38.67,29"/>
    <path class="cls-2" d="m172.06,41.61c3.44-.11,11.21.12,18.84,5,.74.47,17.62,11.66,14.87,29-1.8,11.41-11.11,19.2-19.83,22-12.79,4.11-27.75-1.42-36.69-14"/>
    <path class="cls-3" d="m199.32,88.11c-3.71-.17-11.89-1.05-20.33-6.5-7.95-5.14-12.1-11.72-13.88-15-5.12,5.5-10.25,11-15.37,16.5.46.75,10.03,15.85,27.27,15.5,12.84-.26,20.87-8.9,22.31-10.5Z"/>
    <path class="cls-3" d="m148.75,83.11c-1.42,1.23-22.42,18.94-46.6,11-11.75-3.86-18.78-11.97-21.81-16-24.25,13.12-48.57,9.28-57.51-4-5.57-8.28-6.88-22.76.99-31,8.46-8.86,26.27-9.17,39.66,3-10.73-13.22-28.43-17.57-42.64-11C8.56,40.79,1.34,53.51,1.01,66.11c-.58,22.3,20.71,33.45,21.81,34,13.79,6.92,30.76,4.94,43.63-5,3.49,2.51,26.37,18.41,54.54,11,16.17-4.25,26.36-14.15,30.74-19-.99-1.33-1.98-2.67-2.97-4Z"/>
    <path class="cls-3" d="m67.45,22.11c-3.24,2.77-4.79,7-3.97,11,1.02,4.94,5.49,8.73,10.91,9-1.49,1.78-2.94,2.59-3.97,3-2.53,1.02-5.94,1-5.95,1-.73-1.23-1.69-2.62-2.97-4-3.15-3.4-6.65-5.12-8.92-6,.2-1.18,1.55-8.33,7.93-12,2.68-1.54,5.28-1.92,6.94-2Z"/>
  </g>
</svg>