<?xml version="1.0" encoding="UTF-8"?>
<svg id="Calque_2" data-name="Calque 2" xmlns="http://www.w3.org/2000/svg" viewBox="0 0 208.32 109.61">
  <defs>
    <style>
      .cls-1, .cls-2 {
        fill: #fff;
      }

      .cls-2 {
        stroke: #000;
        stroke-linecap: round;
        stroke-linejoin: round;
      }

      .cls-3 {
        fill: #9be2ed;
      }
    </style>
  </defs>
  <g id="nuage_03">
    <path class="cls-1" d="m157.8,39.61c-4.33-2.67-8.67-5.33-13-8-20.92-3.27-32-5-32-5,0,0-21.59.7-62,2-9,7.67-18,15.33-27,23,13,13.33,26,26.67,39,40,27.67.67,55.33,1.33,83,2l12-54Z"/>
    <path class="cls-2" d="m51.3,82.11c1.81,2.54,19.73,26.83,51,27,25.07.14,41.3-15.32,44.5-18.5"/>
    <path class="cls-2" d="m123.8,28.61c4.67-6.08,12.76-8.51,20-6,7.21,2.5,12.05,9.36,12,17"/>
    <path class="cls-2" d="m139.8,93.61c13.29,11.39,31.41,14.09,46,7,.93-.45,21.35-10.8,22-32,.53-17.24-12.24-34.22-30-37-19.75-3.09-33.42,13.29-34,14"/>
    <path class="cls-2" d="m35.8,47.61c-5.17-6.52-4.12-15.96,2-21,5.72-4.71,14.42-4.39,20,1"/>
    <path class="cls-2" d="m54.8,39.61c-.68-20.33,14.76-37.47,34-39,17.76-1.41,34.63,10.81,39,29"/>
    <path class="cls-2" d="m34.8,41.61c-3.47-.11-11.3.12-19,5-.74.47-17.77,11.66-15,29,1.82,11.41,11.21,19.2,20,22,12.9,4.11,27.98-1.42,37-14"/>
    <path class="cls-3" d="m7.3,88.11c3.74-.17,11.99-1.05,20.5-6.5,8.02-5.14,12.2-11.72,14-15,5.17,5.5,10.33,11,15.5,16.5-.46.75-10.11,15.85-27.5,15.5-12.95-.26-21.05-8.9-22.5-10.5Z"/>
    <path class="cls-3" d="m58.3,83.11c1.43,1.23,22.62,18.94,47,11,11.85-3.86,18.94-11.97,22-16,24.46,13.12,48.99,9.28,58-4,5.62-8.28,6.93-22.76-1-31-8.53-8.86-26.49-9.17-40,3,10.82-13.22,28.68-17.57,43-11,12.39,5.68,19.67,18.4,20,31,.59,22.3-20.89,33.45-22,34-13.91,6.92-31.03,4.94-44-5-3.52,2.51-26.59,18.41-55,11-16.31-4.25-26.59-14.15-31-19,1-1.33,2-2.67,3-4Z"/>
    <path class="cls-3" d="m140.3,22.11c3.26,2.77,4.83,7,4,11-1.02,4.94-5.54,8.73-11,9,1.5,1.78,2.96,2.59,4,3,2.55,1.02,5.99,1,6,1,.73-1.23,1.71-2.62,3-4,3.17-3.4,6.71-5.12,9-6-.21-1.18-1.57-8.33-8-12-2.7-1.54-5.32-1.92-7-2Z"/>
  </g>
</svg>