<?xml version="1.0" encoding="UTF-8"?>
<svg id="Calque_2" data-name="Calque 2" xmlns="http://www.w3.org/2000/svg" viewBox="0 0 249.99 83.86">
  <defs>
    <style>
      .cls-1, .cls-2, .cls-3 {
        fill: #fff;
      }

      .cls-4, .cls-5 {
        fill: none;
      }

      .cls-4, .cls-5, .cls-2, .cls-3 {
        stroke: #000;
        stroke-miterlimit: 10;
      }

      .cls-5, .cls-3 {
        stroke-linecap: round;
      }

      .cls-6 {
        fill: #9be2ed;
      }
    </style>
  </defs>
  <g id="nuage_01">
    <path class="cls-1" d="m207.3,57.36c-1.47-3.06-2.42-6.1-3-9l-45-18c-15-3.67-30-7.33-45-11l-42-3-25,25c-3.33,8.67-6.67,17.33-10,26-10.33,2-20.67,4-31,6-.33,2-.67,4-1,6,78,.67,156,1.33,234,2-5.33-1.42-23.86-7.06-32-24Z"/>
    <path class="cls-2" d="m20.3,71.36c-2.64-3.66-6.88-5.63-11-5-3.36.51-6.66,2.76-8,6-.4.96-1.58,3.81,0,6,1.26,1.75,3.5,1.96,4,2"/>
    <path class="cls-3" d="m5.3,80.36c78.67,1,157.33,2,236,3,3.96-.3,7.21-2.8,8-6,1.16-4.69-3.24-9.61-8-10-4.65-.38-7.77,3.69-8,4-.08-.48-.98-5.28-5-7-4.47-1.92-10.44,1-11,4-.07.36-.05.7,0,1,.11-5.42-3.17-10.27-8-12-5.52-1.98-12,.49-15,6"/>
    <path class="cls-3" d="m129.3,35.36c-.63-15.72,12.53-27.9,26-27,13.73.92,25.27,15.27,22,31"/>
    <path class="cls-3" d="m175.3,42.36c.85-4.45,5.25-7.06,9-6,3.16.89,5.43,4.28,5,8"/>
    <path class="cls-3" d="m207.3,56.36c2.19-6.03-.97-12.81-7-15s-12.81.97-15,7"/>
    <path class="cls-3" d="m116.3,21.36c.53-.32,3.87-2.24,8-1,3.97,1.19,5.71,4.43,6,5"/>
    <path class="cls-3" d="m44.3,50.36c-.22-.33-2.62-4.07-1-8,1.47-3.57,5.62-5.77,10-5"/>
    <path class="cls-3" d="m54.3,45.36c-7.7-7.14-7.83-19.14-1-26,6.16-6.19,16.62-6.84,24-1"/>
    <path class="cls-3" d="m81.3,30.36c-5.24-6.2-6.42-14.58-3-21C82.89.74,93.87-.77,101.3,1.36c7.14,2.04,14.28,8.38,15,17,.54,6.5-2.81,11.41-4,13"/>
    <path class="cls-3" d="m36.21,59.74c2.75-9.52,13.04-13.72,20.09-10.38,6.36,3.01,9.78,12.02,6,20"/>
    <path class="cls-3" d="m20.3,73.36c-.77-6.81,3.53-13.19,10-15,6.22-1.73,12.94,1.17,16,7"/>
    <path class="cls-6" d="m199.8,57.86c-2.23.99-3.61,2.42-4.29,3.13-1.37,1.43-2.21,2.86-2.71,3.87.93-.47,7.37-3.54,14.5-.5,6.05,2.58,8.48,7.81,9,9,1.3-.31,3.88-.75,7,0,2.96.71,4.98,2.16,6,3,1.06-1.1,5.1-5.02,11-5,3.11,0,8.39,1.12,9,4,.53,2.53-2.6,6.18-8,8-74.67-1-149.33-2-224-3,.8-7.95,5.91-14.63,13-17,8.01-2.67,14.94,1.36,16,2,2.79-.09,6.2-.71,9-3,4.01-3.29,4.01-7.5,5.5-7.5,2,0,2.44,5.93,2.5,6.5.5,4.5-.96,6.73-1.5,8.5.52-.14,1-1,3-1s2.54,2.09,3.5,2.5c.08-.46,1.03-5.67,6-8,4.36-2.04,8.92.23,9.5.5.8-1.24,5.16-9,14.5-10.5,6.21-1,11.11,1.08,13,2-.63.99-2.05,3.52-2,7,.06,4.28,1.8,6.67,2.5,7.5.24-.56,5.58-10.84,17.5-12.5,12.03-1.67,19.65,7.56,20,8,4.88-5.12,12.25-7.06,19-5,6.83,2.09,11.89,7.93,13,15,1.51-1.5,3.55-2.96,6-3,2.7-.04,4.29,1.67,5,1,.87-.82-.21-4.61-3-6-2.21-1.1-5.01,1.3-5.5,1.5-.01-1.62.25-6.2-1.5-9.5-1.28-2.42-2.89-4.04-4-5,1.64-.34,4.53-.73,8,0,3.27.69,5.65,2.07,7,3,.88-.08,4.91-.52,8-4,1.27-1.42,2.07-2.56,2.65-3.47.58-.92,1.22-1.82,1.66-2.81.03-.06.09-.2.19-.22.54-.1,1.8,2.56,2,5,.08.99.06,2.8-1,5-1.37-.17-4.07-.3-7,1Z"/>
    <path class="cls-6" d="m78.8,57.86c-2.66-7.84,1.68-18.16,10-22,8.54-3.95,19.71-.34,25,9,.48-.16,6.65-2.12,12,2,5.3,4.09,3.03,8.47,3,9-2.69-4.81-8-4-9-4s-6.02,1.06-7,2c-3.15-7.54-11.02-10.6-18-9-8.31,1.91-14.02,10.54-11,20-1.55-1.27-3.83-3.56-5-7Z"/>
    <path class="cls-6" d="m145.8,57.86c-4.77-2.04-6.92-7.55-5-12,1.75-4.05,6.48-6.3,11-5,.29-1.25,1.36-5.1,5-8,3.58-2.85,7.81-3.33,10.63-3.04.15.02.28.03.37.04,2.06-4.65,1.91-10.03,0-16,1.6,1.17,3.4,2.79,5,5,5.49,7.6,4.42,16.39,4,19-.34.59-.68,1.25-1,2-.47,1.09-.78,2.11-1,3-2.55-3.42-6.89-5-11-4-4.25,1.03-7.45,4.62-8,9-2.83-.86-5.91-.09-8,2s-2.86,5.17-2,8Z"/>
    <path class="cls-5" d="m84.3,64.36c-2.66-7.56.97-15.89,8-19,7.45-3.3,16.59.2,20,8"/>
    <path class="cls-4" d="m111.8,69.86c-4.28-4.66-3.76-12.03,1-16,4.8-4,12.21-3.13,16,2"/>
    <path class="cls-4" d="m149.3,64.36c1.65-9.33,10.67-15.65,20-14s15.65,10.67,14,20c.82-2.47,3.53-3.82,6-3s3.82,3.53,3,6"/>
  </g>
</svg>