<?xml version="1.0" encoding="UTF-8"?>
<svg id="Calque_2" data-name="Calque 2" xmlns="http://www.w3.org/2000/svg" viewBox="0 0 235.77 83.86">
  <defs>
    <style>
      .cls-1, .cls-2, .cls-3 {
        fill: #fff;
      }

      .cls-4, .cls-5 {
        fill: none;
      }

      .cls-4, .cls-5, .cls-2, .cls-3 {
        stroke: #000;
        stroke-miterlimit: 10;
      }

      .cls-5, .cls-3 {
        stroke-linecap: round;
      }

      .cls-6 {
        fill: #9be2ed;
      }
    </style>
  </defs>
  <g id="nuage_06">
    <path class="cls-1" d="m40.28,57.36c1.39-3.06,2.28-6.1,2.83-9,14.14-6,28.29-12,42.43-18,14.14-3.67,28.29-7.33,42.43-11l39.6-3,23.57,25c3.14,8.67,6.29,17.33,9.43,26,9.74,2,19.49,4,29.23,6,.31,2,.63,4,.94,6-73.55.67-147.09,1.33-220.64,2,5.03-1.42,22.5-7.06,30.17-24Z"/>
    <path class="cls-2" d="m216.6,71.36c2.49-3.66,6.49-5.63,10.37-5,3.17.51,6.28,2.76,7.54,6,.37.96,1.49,3.81,0,6-1.19,1.75-3.3,1.96-3.77,2"/>
    <path class="cls-3" d="m230.75,80.36c-74.17,1-148.35,2-222.52,3-3.74-.3-6.79-2.8-7.54-6-1.1-4.69,3.05-9.61,7.54-10,4.38-.38,7.33,3.69,7.54,4,.08-.48.93-5.28,4.71-7,4.22-1.92,9.84,1,10.37,4,.06.36.05.7,0,1-.1-5.42,2.99-10.27,7.54-12,5.21-1.98,11.31.49,14.14,6"/>
    <path class="cls-3" d="m113.83,35.36c.6-15.72-11.82-27.9-24.52-27-12.95.92-23.82,15.27-20.74,31"/>
    <path class="cls-3" d="m70.45,42.36c-.8-4.45-4.95-7.06-8.49-6-2.98.89-5.12,4.28-4.71,8"/>
    <path class="cls-3" d="m40.28,56.36c-2.07-6.03.91-12.81,6.6-15s12.07.97,14.14,7"/>
    <path class="cls-3" d="m126.08,21.36c-.5-.32-3.65-2.24-7.54-1-3.75,1.19-5.38,4.43-5.66,5"/>
    <path class="cls-3" d="m193.97,50.36c.21-.33,2.47-4.07.94-8-1.39-3.57-5.3-5.77-9.43-5"/>
    <path class="cls-3" d="m184.54,45.36c7.26-7.14,7.38-19.14.94-26-5.8-6.19-15.67-6.84-22.63-1"/>
    <path class="cls-3" d="m159.08,30.36c4.94-6.2,6.05-14.58,2.83-21-4.33-8.62-14.68-10.12-21.69-8-6.74,2.04-13.47,8.38-14.14,17-.51,6.5,2.65,11.41,3.77,13"/>
    <path class="cls-3" d="m201.6,59.74c-2.59-9.52-12.3-13.72-18.94-10.38-5.99,3.01-9.22,12.02-5.66,20"/>
    <path class="cls-3" d="m216.6,73.36c.73-6.81-3.33-13.19-9.43-15-5.86-1.73-12.2,1.17-15.09,7"/>
    <path class="cls-6" d="m47.35,57.86c2.1.99,3.4,2.42,4.05,3.13,1.29,1.43,2.08,2.86,2.55,3.87-.88-.47-6.95-3.54-13.67-.5-5.71,2.58-8,7.81-8.49,9-1.22-.31-3.66-.75-6.6,0-2.79.71-4.7,2.16-5.66,3-1-1.1-4.81-5.02-10.37-5-2.93,0-7.91,1.12-8.49,4-.5,2.53,2.45,6.18,7.54,8,70.4-1,140.81-2,211.21-3-.75-7.95-5.57-14.63-12.26-17-7.55-2.67-14.09,1.36-15.09,2-2.63-.09-5.85-.71-8.49-3-3.78-3.29-3.78-7.5-5.19-7.5-1.89,0-2.3,5.93-2.36,6.5-.47,4.5.91,6.73,1.41,8.5-.49-.14-.94-1-2.83-1s-2.39,2.09-3.3,2.5c-.07-.46-.98-5.67-5.66-8-4.11-2.04-8.41.23-8.96.5-.75-1.24-4.87-9-13.67-10.5-5.85-1-10.48,1.08-12.26,2,.59.99,1.93,3.52,1.89,7-.06,4.28-1.7,6.67-2.36,7.5-.23-.56-5.26-10.84-16.5-12.5-11.34-1.67-18.53,7.56-18.86,8-4.6-5.12-11.55-7.06-17.92-5-6.44,2.09-11.21,7.93-12.26,15-1.42-1.5-3.35-2.96-5.66-3-2.55-.04-4.04,1.67-4.71,1-.82-.82.2-4.61,2.83-6,2.08-1.1,4.72,1.3,5.19,1.5,0-1.62-.23-6.2,1.41-9.5,1.21-2.42,2.72-4.04,3.77-5-1.54-.34-4.27-.73-7.54,0-3.08.69-5.33,2.07-6.6,3-.83-.08-4.63-.52-7.54-4-1.19-1.42-1.96-2.56-2.49-3.47-.54-.92-1.15-1.82-1.57-2.81-.03-.06-.08-.2-.18-.22-.51-.1-1.69,2.56-1.89,5-.08.99-.06,2.8.94,5,1.29-.17,3.84-.3,6.6,1Z"/>
    <path class="cls-6" d="m161.44,57.86c2.51-7.84-1.58-18.16-9.43-22-8.05-3.95-18.59-.34-23.57,9-.46-.16-6.27-2.12-11.31,2-5,4.09-2.86,8.47-2.83,9,2.53-4.81,7.54-4,8.49-4s5.68,1.06,6.6,2c2.97-7.54,10.39-10.6,16.97-9,7.83,1.91,13.22,10.54,10.37,20,1.46-1.27,3.61-3.56,4.71-7Z"/>
    <path class="cls-6" d="m98.27,57.86c4.5-2.04,6.53-7.55,4.71-12-1.65-4.05-6.11-6.3-10.37-5-.28-1.25-1.28-5.1-4.71-8-3.38-2.85-7.37-3.33-10.02-3.04-.15.02-.27.03-.35.04-1.94-4.65-1.8-10.03,0-16-1.51,1.17-3.21,2.79-4.71,5-5.17,7.6-4.17,16.39-3.77,19,.32.59.64,1.25.94,2,.44,1.09.74,2.11.94,3,2.4-3.42,6.5-5,10.37-4,4,1.03,7.02,4.62,7.54,9,2.67-.86,5.57-.09,7.54,2s2.7,5.17,1.89,8Z"/>
    <path class="cls-5" d="m156.26,64.36c2.51-7.56-.91-15.89-7.54-19-7.03-3.3-15.64.2-18.86,8"/>
    <path class="cls-4" d="m130.33,69.86c4.03-4.66,3.55-12.03-.94-16-4.53-4-11.52-3.13-15.09,2"/>
    <path class="cls-4" d="m94.97,64.36c-1.55-9.33-10.06-15.65-18.86-14s-14.75,10.67-13.2,20c-.78-2.47-3.33-3.82-5.66-3s-3.6,3.53-2.83,6"/>
  </g>
</svg>