<?xml version="1.0" encoding="UTF-8"?>
<svg id="Calque_2" data-name="Calque 2" xmlns="http://www.w3.org/2000/svg" viewBox="0 0 349.22 156.93">
  <defs>
    <style>
      .cls-1, .cls-2 {
        fill: #fff;
      }

      .cls-2, .cls-3 {
        stroke: #000;
        stroke-linecap: round;
        stroke-linejoin: round;
      }

      .cls-4 {
        fill: #9be2ed;
      }

      .cls-3 {
        fill: none;
      }
    </style>
  </defs>
  <g id="nuage_02">
    <path class="cls-1" d="m171.62,56.34c-4.3.37-8.63.7-13,1-34.95,2.38-68.36,2.14-100,0-7.83,11.5-15.67,23-23.5,34.5-3.21.03-9.36.53-16,4-5.52,2.89-9.07,6.62-11,9C.17,114.4.84,121.87,1.12,123.84c1.88,13.54,20.64,26.03,46.5,24.5,9.98-.54,20.32-1.23,31-1,15.33.33,30.67.67,46,1,15-2.33,30-4.67,45-7,24.67-.33,49.33-.67,74-1,11,.67,22,1.33,33,2,9,1.33,18,2.67,27,4,8-1.67,16-3.33,24-5l-6-15-39-9c-2.33-2.67-4.67-5.33-7-8-23.33-3.67-46.67-7.33-70-11-.33-10-.67-20-1-30l-33-12Z"/>
    <path class="cls-4" d="m4.12,133.84c1.13,1.72,10.61,15.61,26.5,16,5.77.14,10.46-1.54,13.5-3,1.13,1.34,5.15,5.82,12,7,9.31,1.61,16.1-4.2,17-5,3.09,2.17,9.72,6.17,19,7,13.37,1.19,23.14-5.02,26-7-8.58-.09-22.77-1.44-38-9-7.57-3.76-13.53-8.13-18-12-10.41,5.74-19.63,8.54-26,10-12.49,2.86-18.54,1.63-21,1-4.91-1.25-8.63-3.38-11-5Z"/>
    <path class="cls-3" d="m44.62,146.34c1.13,1.61,2.33,5.16,10,7,11.49,2.75,17.31-3.34,18-4"/>
    <path class="cls-3" d="m63.12,133.84c1.41,3.9,5.05,12.09,13.5,17.5,12.11,7.75,29.09,6.57,43-3"/>
    <path class="cls-2" d="m108.66,141.43c1.17,1.49,11.33,14.03,28.64,13.89,16.26-.13,25.96-11.35,27.32-12.98,24.33-1,48.67-2,73-3"/>
    <path class="cls-2" d="m162.62,141.34c5.83,3.37,20.31,10.68,40,10,20.98-.73,35.58-10.11,41-14"/>
    <path class="cls-2" d="m240.62,135.34c3.04,7.61,9.95,13,18,14,11.87,1.48,19.5-7.39,20-8"/>
    <path class="cls-2" d="m278.62,142.34c2.01,1.7,7.98,6.3,17,7,9.83.77,16.9-3.6,19-5"/>
    <path class="cls-2" d="m281.62,115.34c-.26-.88-2.51-8.05-10-11-8.29-3.26-15.47,1.62-16,2"/>
    <path class="cls-2" d="m267.62,125.34c.77-1.04,11.68-15.16,30-14,17.12,1.08,26.09,14.58,27,16"/>
    <path class="cls-2" d="m312.62,144.34c.87.98,8.26,9.11,19,8,6.65-.69,15.94-5.05,17-13,.64-4.76-1.88-9.36-5-12-5.68-4.8-15.21-4.67-23,1"/>
    <path class="cls-2" d="m139.62,84.34c4.85-10.85,15.66-17.61,27-17,15.12.81,22.61,14.28,23,15"/>
    <path class="cls-2" d="m205.62,75.34c3.18-11.7-3.08-23.89-14-28-10.23-3.85-22.15.29-28,10"/>
    <path class="cls-2" d="m166.62,115.34c4.09-26.87,28.53-45.09,53-42,21.2,2.68,38.75,20.89,41,44"/>
    <path class="cls-2" d="m67.62,57.34c-11.28-4.8-24.21-1.31-31,8-5.83,8-6.24,19.06-1,28"/>
    <path class="cls-2" d="m86.62,81.34c-3.58-1.3-11.55-4.78-17-13-8.56-12.92-4.29-27.57-3-32,4.89-16.77,19.52-29.59,36-34,16.12-4.31,38.33-1.71,52,15,14.74,18.01,9.66,40.31,9,43"/>
    <path class="cls-3" d="m63.62,108.34c-8.03-11.54-21.19-17.81-34-16C14.13,94.53-.99,108.55.62,124.34c1.2,11.8,11.37,20.95,22,24,16.22,4.65,29.06-6.18,30-7"/>
    <path class="cls-4" d="m5.12,134.84c15.33,8.26,31.57,4.96,43.5-4.5,9.45-7.5,12.19-18.02,13-22-.91,10.55,4.14,20.68,13,26,11.21,6.74,23.5,3.35,26.5,2.5,1.29-.37,2.33-.74,3-1,.67,1,1.33,2,2,3,1.48,2.38,3.72,5.3,7,8,1.2.99,2.38,1.81,3.5,2.5-5.21.95-19.81,2.88-35-5-8.39-4.35-13.86-10.08-17-14l-18,6-27,6c-5.33-3.33-9.17-4.17-14.5-7.5Z"/>
    <path class="cls-2" d="m95.62,137.34c-12.44-17.23-7.99-41.03,8-52,16.91-11.61,42.34-5.85,53,14"/>
    <path class="cls-4" d="m103.12,138.84c2.09.98,5.51,2.26,9.85,2.45,6.62.29,11.36-2.43,14.15-3.45,6.61-2.42,17.06-11.19,19-23,2.2-13.43-6.98-28.49-23-35,3.44.01,12.81.51,22,7,7.95,5.62,11.59,12.77,13,16,1.77-.81,12.53-5.95,16-18,1.89-6.56.76-12.22,0-15,2.13.66,5.6,2.04,9,5,2.43,2.12,4.02,4.35,5,6-3.72,2.77-9.23,7.57-14,15-5.06,7.89-7.1,15.34-8,20,35.39,14.36,64.31,8.82,70-4,6.24-14.06-15.59-36.58-17-38,4.86.56,13.04,2.26,21,8,6.26,4.52,9.71,9.6,12,13,2.26,3.35,5.39,8.05,7,15,.76,3.26.96,6.05,1,8h1c-.09-1.97-.36-4.35-1-7-.56-2.33-1.29-4.35-2-6,.8-.34,8.71-3.55,16,1,4.75,2.96,6.5,7.51,7,9,3.38-1.48,9.43-3.56,17-3,15.03,1.11,24.14,11.73,26,14l-4,3c7.16-5.14,15.29-6.35,21-3,4.24,2.49,8.01,8.1,7,14-1.22,7.14-8.7,10.09-11,11-6.94,2.74-13.2.64-15,0-5.34-1.89-8.59-5.31-10-7,.21.1,1,.48,1,1s-.72.86-1,1c-7.02,3.52-14,3-14,3-8.09-.6-14.72-3.57-19-6l-1-1c-1.66,1.62-4.99,4.42-10,6-1.42.45-5.36,1.69-10,1-9.71-1.44-15.04-9.48-16-11-5.84,3.98-24.32,15.49-49,13-12.45-1.26-22.06-5.63-28-9-2.85,2.87-14.29,13.75-29,13-4.14-.21-7.54-1.23-10-2-11.17-3.5-18.76-9.8-23-14Z"/>
    <path class="cls-4" d="m137.12,4.84c11.21,12.17,15.06,29.4,10,45-7.52,23.19-30.45,29.6-32,30,3.63-.73,9.32-1.37,16,0,3.62.74,6.64,1.89,9,3,1.57-2.78,4.62-7.3,10-11,2.93-2.02,5.75-3.24,8-4,.26-.24.61-.58,1-1,9.21-9.95,6.82-29.43,0-42-6.47-11.93-16.94-17.68-22-20Z"/>
    <path class="cls-4" d="m180.12,71.84c1.45.92,3.21,2.21,5,4,1.21,1.21,2.65,2.86,4,5,1.84-1.31,4.17-2.74,7-4,3.81-1.7,7.29-2.55,10-3,.32-1.97,1.19-8.94-3-16-4.99-8.41-13.41-10.62-15-11,.54,1.29,3.37,8.35,0,16-2.33,5.29-6.37,8.02-8,9Z"/>
  </g>
</svg>