<?xml version="1.0" encoding="UTF-8"?>
<svg id="Calque_2" data-name="Calque 2" xmlns="http://www.w3.org/2000/svg" viewBox="0 0 1011.46 996.73">
  <defs>
    <style>
      .cls-1 {
        fill: #7ae582;
      }

      .cls-1, .cls-2 {
        stroke: #000;
        stroke-miterlimit: 10;
      }

      .cls-2 {
        fill: #ffd23f;
      }

      .cls-3 {
        fill: #5a9e5e;
      }
    </style>
  </defs>
  <g id="Calque_2-2" data-name="Calque 2">
    <path id="visage" class="cls-1" d="m474.04,464.08c.51-9.1,4.87-14.6,4.87-14.6,4.99-6.3,10.42-5.34,13.52-8.65,9.71-10.39-22.12-42.82-24.88-78.43-1.05-13.57,1.68-33.3,20.01-58.41,15.44,17.43,21.44,20.34,23.8,18.93,6.72-4-18.57-41.45-15.14-86.54,1.99-26.2,13.11-47.47,23.8-62.74,3.61-.18,7.21-.36,10.82-.54,15.56-18.99,19.76-35.03,20.55-46.51.74-10.75-1.21-21.93,4.33-24.88,5.68-3.02,11.29,6.86,20.01,5.41,13.38-2.22,11.3-27.3,30.29-37.32,10.59-5.59,15.38.03,22.18-5.41,16.01-12.83-2.7-50.41,8.11-57.33,12.76-8.17,46.92,38.97,68.69,29.75,15.15-6.42,11.63-34.75,21.63-36.24,15.79-2.35,26.52,67.96,61.66,73.56,17.37,2.77,32.67-11.56,40.57-3.79,7.43,7.32-2.59,23.5,4.33,29.21,9.33,7.69,35.08-15.52,42.19-9.19,8.54,7.6-20.33,48.46-9.74,58.41,4.95,4.65,14.51-1.2,18.93,4.33,5.77,7.22-5.9,22.97-1.62,26.5,4.06,3.36,15.88-9.76,21.63-6.49,9.33,5.3-9.5,46.76,2.16,54.63,5.44,3.67,12.42-3.42,17.85.54,9.59,7-5.76,33.85,3.79,42.19,8.59,7.5,28.31-7.87,36.24,0,6.57,6.52-2.82,21.19,3.79,27.58,5.66,5.48,15.77-4.64,24.34-1.62,19.67,6.92,30.21,80.24-4.33,117.91-17.15,18.71-44.73,27.85-42.34,35.32,1.41,4.41,11.26,1.88,14.21,6.87,6.55,11.09-25.83,51.17-68.15,70.85-38.32,17.83-72.48,13.21-95.73,12.44-141.57-4.71-201.46,122.35-268.81,89.78,0,0-61.18-29.58-53.55-165.5Z"/>
    <path class="cls-3" d="m495.67,381.33c8.55-6.57,30.59,26.35,70.85,34.62,29.79,6.12,55.61-4.13,60.04-5.95,29.35-12.09,30.22-29.42,60.04-40.02,1.92-.68,40.88-14.15,52.46,1.08,9.33,12.26-2.99,37.96-15.69,52.46-22.4,25.59-60.71,33.12-89.24,28.67-16.29-2.54-19.48-7.44-38.94-8.65-26.84-1.67-30.55,7.04-48.68,3.79-25.5-4.57-46.28-26.86-51.38-49.22-1.35-5.91-3.17-13.92.54-16.77Z"/>
    <path class="cls-2" d="m499.82,387.28c2.25-1.72,10.18,4.48,25.96,16.95,17.36,13.72,26.04,20.58,24.88,23.08-1.91,4.13-23.75,2.21-37.86-10.82-11.26-10.4-16.3-26.67-12.98-29.21Z"/>
    <path class="cls-2" d="m657.03,420.63c-1.12-4.74,15.39-12.31,31.01-19.47,13.41-6.15,35.87-16.45,39.3-11.54,2.98,4.26-8.25,20.17-23.44,28.49-19.97,10.93-45.57,8.06-46.87,2.52Z"/>
    <path d="m666.01,418.67c.87,2.88,1.62,5.26,2.17,7,.56-.04,1.12-.07,1.68-.11.07-3.13-.03-5.71-.14-7.57-.3-4.99-.77-5.97-1.49-6.26-.9-.37-2.22.3-2.84,1.24-.75,1.13-.36,2.51.61,5.71Z"/>
    <path id="tentacule_01" class="cls-1" d="m785.03,469.49c24.06,7.3,37.58,28.6,38.9,30.74,11.08,17.98,10.28,35.65,10.86,46.07,2.82,50.89,46.93,78.85,67.07,110.34,39.61,61.93-42.8,104.96-22.72,207.15,7.35,37.41,22.53,62.82,16.23,66.53-8.05,4.73-48.49-27.52-63.28-72.48-23.79-72.29,37.02-121.85,12.98-177.94-8.56-19.98-29.67-44.95-87.08-61.66-47.01-3.42-80.13-46.58-73.02-89.24,8.09-48.53,63.88-70.48,100.06-59.5Z"/>
    <path id="tentacule_02" class="cls-1" d="m492.97,468.41c-13.92-13.4-37.5-15.54-54.09-9.38-31.84,11.84-42.58,56.02-59.86,131.25-8.87,38.64-12.95,79.78-36.78,123.32-3.09,5.65-11.46,20.39-28.31,31.19-18.39,11.79-49.62,20.65-61.12,7.03-7.62-9.03-5.53-26.69,1.62-37.32,6.3-9.37,15.85-12.26,14.96-14.6-1.03-2.73-15.55-2.75-25.24,3.61-19.84,13.01-25.18,56.52-8.11,79.15,23.91,31.69,91.98,22.65,135.04-2.7,9.82-5.78,34.71-22.95,73.56-97.36,24.83-47.56,90.58-173.51,48.32-214.18Z"/>
    <path id="tentacule_03" class="cls-1" d="m902.94,962.76c-18.03-50.77,36.02-81.72,18.93-135.22-12.49-39.11-38.76-63.64-47.96-71.57-34.95-30.13-49.74-15.61-83.29-44.35-35.18-30.13-21.68-48.45-64.54-87.98-16.68-15.38-29.74-22.82-33.53-40.56-3.53-16.54,1.92-38.49,17.31-47.6,22.01-13.03,54.9,13.99,64.36,21.63,30.62,24.72,26.51,43.74,53.55,74.82,29.51,33.92,44.49,21.6,79.33,54.81,39.26,37.43,52.43,82.8,56.97,99.16,15.77,56.88,4.51,102.17,2.16,111.06-6.96,26.36-33.23,33.5-37.14,64.18-2.34,18.35,2.58,33.49-1.62,34.98-4.77,1.69-18.13-15.36-24.52-33.35Z"/>
    <path id="tentacule_04" class="cls-1" d="m653.6,517.62c24.56,13.4,23.42,58.77,23.26,65.44-.99,39.82-22.12,50.31-18.39,80.59,2.98,24.19,17.74,27.88,36.78,57.87,4.3,6.78,45.75,74.11,25.42,143.33-.67,2.27-17.7,57.63-60.58,74.1-7.15,2.75-17.87,5.5-20.01,2.16-2.97-4.63,13.71-16.01,24.34-38.94,0,0,6.54-14.11,8.65-33.53,4.19-38.49-44.35-94.11-44.35-94.11-55.22-67.82-88.07-178.36-54.09-228.24,17.8-26.12,57.26-40.51,78.97-28.67Z"/>
    <path id="tentacule_05" class="cls-1" d="m555.71,495.99c-36.21,9.42-48.36,60.53-51.97,75.71-12.68,53.34,12.64,66.93-.5,115.22-9.32,34.24-23.5,32.72-43.81,81.67-17.38,41.88-12.24,55.63-22.18,83.29-31.23,86.94-137.83,106.49-132.51,122.24,5.55,16.41,129.11,18.1,186.06-54.63,23.02-29.4,11.53-40.78,38.4-111.42,31.62-83.12,55.57-88.47,80.05-166.05,14.62-46.32,30.18-97.95,3.79-127.64-13.75-15.47-37.59-23.53-57.33-18.39Z"/>
    <path id="tentacule_06" class="cls-1" d="m503.78,480.85c-16.49-11.26-39.8-4.52-74.1,5.41-20.25,5.86-36.13,13.1-46.51,18.39-9.45.32-24.55,0-42.19-4.33-44.84-11.02-55.19-35.55-93.57-46.51-5.52-1.58-40.96-11.19-78.43,3.25-48.95,18.86-70.58,66.9-76.26,79.51-13.73,30.49-7.84,42.55-24.88,78.97-11.33,24.22-24.74,41.98-34.07,53-2.69,4.07-6.39,10.45-4.33,12.98,3.25,4,18.99-3.83,23.26-5.95,47.53-23.63,57.77-118.82,121.19-150.67,4.04-2.03,39.86-19.4,75.37-7.1,12.62,4.37,22.35,11.51,38.17,23.1,26.67,19.55,29.43,28.29,45.97,38.4,19.94,12.19,39.17,13.71,60.58,15.14,36.71,2.46,97.15,6.72,120.07-30.29,16.06-25.93,11.46-68.45-10.28-83.29Z"/>
    <path id="tentacule_07" class="cls-1" d="m509.19,518.71c-24.21-12-51.93-.38-60.58,3.25-54.23,22.73-47.66,76.88-99.52,94.65-23.82,8.16-45.64,6.31-75.18,3.79-55.84-4.77-66.49-22.52-100.06-15.14-35.35,7.77-59.71,35.39-67.61,44.35-18.98,21.53-18.09,33.29-36.24,52.46-20.01,21.13-44.06,31.1-61.66,36.24-1.66,1.46-9.41,8.43-7.57,12.44.98,2.13,4.26,2.56,5.41,2.7,35.19,4.55,69.77-17.31,69.77-17.31,63.03-39.84,60.81-68.3,94.11-74.1,21.56-3.75,27.39,7.32,79.51,23.26,21.8,8.89,54.97,19.23,95.73,19.47,83.13.49,188.9-41.07,199.58-106.01,4.8-29.22-9.04-66.84-35.7-80.05Z"/>
    <path id="tentacule_07-2" data-name="tentacule_07" class="cls-1" d="m744.47,991.96c-7.88-4.51,35.75-58.65,14.06-107.63-9.04-20.41-21.71-22.53-30.83-48.68-9.8-28.12,1.04-36.62-4.33-63.28-10.06-49.95-54.3-50.86-60.04-94.11-4.47-33.66,20.57-46.25,9.19-73.02-9.79-23.03-31.7-21.63-38.4-44.89-5.34-18.53,1.83-42.82,18.39-54.09,20.56-13.98,49.26-5.76,65.44,6.49,30.97,23.43,35.56,75.91,25.96,111.96-6.89,25.88-19.2,36.19-14.06,55.17,5.66,20.89,23.36,18.7,36.78,39.48,23.01,35.64-12.7,67.33,6.49,120.61,10.63,29.51,24.53,27.97,28.67,51.92,9.02,52.19-49.12,104.76-57.33,100.06Z"/>
    <path d="m533.2,409.89c-.26.09-1.01.61-.48,8.87.24,3.71.59,6.8.88,9,.52.05,1.04.1,1.55.14.47-2.57.86-5.44,1.08-8.57.15-2.14.21-4.16.19-6.05-1.84-3.05-2.75-3.56-3.23-3.39Z"/>
  </g>
</svg>