<?xml version="1.0" encoding="UTF-8"?>
<svg id="Calque_2" data-name="Calque 2" xmlns="http://www.w3.org/2000/svg" viewBox="0 0 106.4 37.03">
  <defs>
    <style>
      .cls-1 {
        fill: #ffd23f;
        stroke: #000;
        stroke-miterlimit: 10;
      }

      .cls-2 {
        fill: #5a9e5e;
      }
    </style>
  </defs>
  <g id="Calque_3" data-name="Calque 3">
    <path class="cls-2" d="m21.71,8.07c6.98,4.09,5.65,9.88,12.01,13.47,8.46,4.78,19.9-.43,24.82-2.46,12.13-5,12.49-12.16,24.82-16.55.8-.28,16.9-5.85,21.69.45,3.86,5.07-1.24,15.69-6.48,21.69-9.26,10.58-25.1,13.69-36.89,11.85-7.59-1.18-6.55-2.3-16.1-3.58-18.85-2.53-24.51,3.61-33.27-.95C3.22,27.26-2.55,14.48,1.12,8.96c3.13-4.72,13.7-4.94,20.59-.89Z"/>
    <path class="cls-1" d="m3.93,10.55c.93-.71,9.88-3.56,16.41,1.6,7.18,5.67,5.09,13.92,4.61,14.95-.79,1.71-9.82.91-15.65-4.47-4.66-4.3-6.74-11.03-5.37-12.07Z"/>
    <path class="cls-1" d="m68.93,24.34c-.46-1.96,3.85-10.94,10.3-13.91,5.54-2.54,17.35-.94,18.77,1.09,1.23,1.76-3.41,8.34-9.69,11.78-8.26,4.52-18.84,3.33-19.38,1.04Z"/>
    <path d="m9.06,10.15c-.17,1.91-.26,4.04-.19,6.37.06,1.88.21,3.63.41,5.22.21.02.45.61.67.63.13-1.84.2-3.82.19-5.93-.02-2.36-.15-4.57-.35-6.6-.24.1-.48.2-.73.3Z"/>
    <path d="m74.17,14.56c.22,1.99.4,4.07.53,6.25.11,1.81.17,3.56.19,5.25-.2,0-.41.02-.61.03-.25-1.41-.47-2.94-.62-4.58-.22-2.33-.27-4.48-.22-6.43.24-.17.49-.35.73-.52Z"/>
  </g>
</svg>