<?xml version="1.0" encoding="UTF-8"?>
<svg id="Calque_2" data-name="Calque 2" xmlns="http://www.w3.org/2000/svg" viewBox="0 0 1013.48 717.83">
  <defs>
    <style>
      .cls-1 {
        stroke: #000;
        stroke-miterlimit: 10;
      }
    </style>
  </defs>
  <g id="Calque_1-2" data-name="Calque 1">
    <path class="cls-1" d="m903.93,319.15c2.13-9.88,6.14-23.37,14.09-38.01,7.49-13.8,16.01-24.05,22.81-31.08-8.48,1.87-17.84,4.86-27.49,9.64-40.91,20.27-58.72,58.7-64.86,74.21-10.13-7.51-22.91-8.99-32.76-3.69-7.77,4.18-11.22,11.25-12.41,14.09-4.2.73-5.11,1.46-5.14,2.01-.1,1.8,9.31,2.25,18,6.93,8.63,4.65,12.66,11.39,15.09,14.53,12.21,15.79,46.05,21.08,70.32,16.77,23.41-4.16,44.12-18.35,72-29.38,1.98-.78,6.65-2.6,13.08-3.71,7.72-1.33,14.16-.99,18.11-.56,2.86-5.55,4.67-7.87,5.85-8.89.08-.07.21-.18.19-.28-.24-1.06-15.1,1.51-27.95,3.91,9.91-2.46,19.83-4.92,29.74-7.38-1.86-2.35-3.73-4.7-5.59-7.04-2.11.31-5.27.83-9.06,1.68-11.11,2.5-16.12,5.27-22.81,7.27-4.92,1.47-12.03,1.76-26.04,2.28-7.75.29-18.06.51-30.31.29,2.9-6.35,7.47-15.43,14.2-25.6,12.6-19.04,23.83-28.4,22.58-29.96-1.08-1.36-11.23,3.61-51.65,31.98Z"/>
    <path class="cls-1" d="m719.83,371.13c2.13-9.88,6.14-23.37,14.09-38.01,7.49-13.8,16.01-24.05,22.81-31.08-8.48,1.87-17.84,4.86-27.49,9.64-40.91,20.27-58.72,58.7-64.86,74.21-10.13-7.51-22.91-8.99-32.76-3.69-7.77,4.18-11.22,11.25-12.41,14.09-4.2.73-5.11,1.46-5.14,2.01-.1,1.8,9.31,2.25,18,6.93,8.63,4.65,12.66,11.39,15.09,14.53,12.21,15.79,46.05,21.08,70.32,16.77,23.41-4.16,44.12-18.35,72-29.38,1.98-.78,6.65-2.6,13.08-3.71,7.72-1.33,14.16-.99,18.11-.56,2.86-5.55,4.67-7.87,5.85-8.89.08-.07.21-.18.19-.28-.24-1.06-15.1,1.51-27.95,3.91,9.91-2.46,19.83-4.92,29.74-7.38-1.86-2.35-3.73-4.7-5.59-7.04-2.11.31-5.27.83-9.06,1.68-11.11,2.5-16.12,5.27-22.81,7.27-4.92,1.47-12.03,1.76-26.04,2.28-7.75.29-18.06.51-30.31.29,2.9-6.35,7.47-15.43,14.2-25.6,12.6-19.04,23.83-28.4,22.58-29.96-1.08-1.36-11.23,3.61-51.65,31.98Z"/>
    <path class="cls-1" d="m666.17,175.26c2.13-9.88,6.14-23.37,14.09-38.01,7.49-13.8,16.01-24.05,22.81-31.08-8.48,1.87-17.84,4.86-27.49,9.64-40.91,20.27-58.72,58.7-64.86,74.21-10.13-7.51-22.91-8.99-32.76-3.69-7.77,4.18-11.22,11.25-12.41,14.09-4.2.73-5.11,1.46-5.14,2.01-.1,1.8,9.31,2.25,18,6.93,8.63,4.65,12.66,11.39,15.09,14.53,12.21,15.79,46.05,21.08,70.32,16.77,23.41-4.16,44.12-18.35,72-29.38,1.98-.78,6.65-2.6,13.08-3.71,7.72-1.33,14.16-.99,18.11-.56,2.86-5.55,4.67-7.87,5.85-8.89.08-.07.21-.18.19-.28-.24-1.06-15.1,1.51-27.95,3.91,9.91-2.46,19.83-4.92,29.74-7.38-1.86-2.35-3.73-4.7-5.59-7.04-2.11.31-5.27.83-9.06,1.68-11.11,2.5-16.12,5.27-22.81,7.27-4.92,1.47-12.03,1.76-26.04,2.28-7.75.29-18.06.51-30.31.29,2.9-6.35,7.47-15.43,14.2-25.6,12.6-19.04,23.83-28.4,22.58-29.96-1.08-1.36-11.23,3.61-51.65,31.98Z"/>
    <path class="cls-1" d="m789.15,254.41c2.13-9.88,6.14-23.37,14.09-38.01,7.49-13.8,16.01-24.05,22.81-31.08-8.48,1.87-17.84,4.86-27.49,9.64-40.91,20.27-58.72,58.7-64.86,74.21-10.13-7.51-22.91-8.99-32.76-3.69-7.77,4.18-11.22,11.25-12.41,14.09-4.2.73-5.11,1.46-5.14,2.01-.1,1.8,9.31,2.25,18,6.93,8.63,4.65,12.66,11.39,15.09,14.53,12.21,15.79,46.05,21.08,70.32,16.77,23.41-4.16,44.12-18.35,72-29.38,1.98-.78,6.65-2.6,13.08-3.71,7.72-1.33,14.16-.99,18.11-.56,2.86-5.55,4.67-7.87,5.85-8.89.08-.07.21-.18.19-.28-.24-1.06-15.1,1.51-27.95,3.91,9.91-2.46,19.83-4.92,29.74-7.38-1.86-2.35-3.73-4.7-5.59-7.04-2.11.31-5.27.83-9.06,1.68-11.11,2.5-16.12,5.27-22.81,7.27-4.92,1.47-12.03,1.76-26.04,2.28-7.75.29-18.06.51-30.31.29,2.9-6.35,7.47-15.43,14.2-25.6,12.6-19.04,23.83-28.4,22.58-29.96-1.08-1.36-11.23,3.61-51.65,31.98Z"/>
    <path class="cls-1" d="m532.67,433.92c3.33-14.86,9.6-35.16,22.04-57.18,11.72-20.75,25.05-36.18,35.68-46.75-13.26,2.81-27.91,7.31-43,14.5-64,30.49-91.86,88.3-101.47,111.63-15.84-11.29-35.84-13.52-51.25-5.55-12.16,6.29-17.55,16.92-19.42,21.19-6.58,1.09-8,2.2-8.05,3.03-.15,2.71,14.57,3.38,28.16,10.43,13.5,7,19.81,17.13,23.61,21.86,19.11,23.75,72.04,31.72,110.02,25.23,36.62-6.26,69.03-27.6,112.64-44.2,3.1-1.18,10.4-3.91,20.47-5.58,12.07-2,22.15-1.48,28.34-.84,4.47-8.35,7.31-11.84,9.16-13.37.13-.11.33-.27.29-.42-.38-1.59-23.62,2.27-43.73,5.89,15.51-3.7,31.02-7.4,46.53-11.1-2.92-3.53-5.83-7.06-8.75-10.6-3.3.46-8.25,1.24-14.17,2.52-17.38,3.75-25.22,7.92-35.68,10.93-7.7,2.21-18.82,2.65-40.74,3.44-12.13.43-28.26.76-47.42.43,4.54-9.56,11.68-23.2,22.21-38.51,19.71-28.65,37.27-42.72,35.33-45.07-1.69-2.05-17.57,5.43-80.81,48.1Z"/>
    <path class="cls-1" d="m529.75,119.43c1.72-8.08,4.97-19.13,11.4-31.1,6.07-11.29,12.96-19.68,18.46-25.43-6.86,1.53-14.44,3.98-22.25,7.89-33.12,16.59-47.53,48.03-52.51,60.72-8.2-6.14-18.55-7.36-26.52-3.02-6.29,3.42-9.08,9.2-10.05,11.53-3.4.59-4.14,1.2-4.16,1.65-.08,1.48,7.54,1.84,14.57,5.67,6.99,3.81,10.25,9.32,12.22,11.89,9.89,12.92,37.28,17.25,56.93,13.72,18.95-3.4,35.72-15.01,58.28-24.04,1.6-.64,5.38-2.13,10.59-3.04,6.25-1.09,11.46-.81,14.66-.46,2.31-4.54,3.78-6.44,4.74-7.27.07-.06.17-.14.15-.23-.2-.87-12.22,1.23-22.63,3.2,8.02-2.01,16.05-4.03,24.07-6.04-1.51-1.92-3.02-3.84-4.53-5.76-1.71.25-4.27.68-7.33,1.37-9,2.04-13.05,4.31-18.46,5.95-3.98,1.2-9.74,1.44-21.08,1.87-6.27.24-14.62.41-24.54.24,2.35-5.2,6.04-12.62,11.49-20.95,10.2-15.58,19.29-23.24,18.28-24.52-.87-1.11-9.09,2.96-41.81,26.16Z"/>
    <path class="cls-1" d="m455.98,276.55c2.13-9.88,6.14-23.37,14.09-38.01,7.49-13.8,16.01-24.05,22.81-31.08-8.48,1.87-17.84,4.86-27.49,9.64-40.91,20.27-58.72,58.7-64.86,74.21-10.13-7.51-22.91-8.99-32.76-3.69-7.77,4.18-11.22,11.25-12.41,14.09-4.2.73-5.11,1.46-5.14,2.01-.1,1.8,9.31,2.25,18,6.93,8.63,4.65,12.66,11.39,15.09,14.53,12.21,15.79,46.05,21.08,70.32,16.77,23.41-4.16,44.12-18.35,72-29.38,1.98-.78,6.65-2.6,13.08-3.71,7.72-1.33,14.16-.99,18.11-.56,2.86-5.55,4.67-7.87,5.85-8.89.08-.07.21-.18.19-.28-.24-1.06-15.1,1.51-27.95,3.91,9.91-2.46,19.83-4.92,29.74-7.38-1.86-2.35-3.73-4.7-5.59-7.04-2.11.31-5.27.83-9.06,1.68-11.11,2.5-16.12,5.27-22.81,7.27-4.92,1.47-12.03,1.76-26.04,2.28-7.75.29-18.06.51-30.31.29,2.9-6.35,7.47-15.43,14.2-25.6,12.6-19.04,23.83-28.4,22.58-29.96-1.08-1.36-11.23,3.61-51.65,31.98Z"/>
    <path class="cls-1" d="m230.59,263.14c2.13-9.88,6.14-23.37,14.09-38.01,7.49-13.8,16.01-24.05,22.81-31.08-8.48,1.87-17.84,4.86-27.49,9.64-40.91,20.27-58.72,58.7-64.86,74.21-10.13-7.51-22.91-8.99-32.76-3.69-7.77,4.18-11.22,11.25-12.41,14.09-4.2.73-5.11,1.46-5.14,2.01-.1,1.8,9.31,2.25,18,6.93,8.63,4.65,12.66,11.39,15.09,14.53,12.21,15.79,46.05,21.08,70.32,16.77,23.41-4.16,44.12-18.35,72-29.38,1.98-.78,6.65-2.6,13.08-3.71,7.72-1.33,14.16-.99,18.11-.56,2.86-5.55,4.67-7.87,5.85-8.89.08-.07.21-.18.19-.28-.24-1.06-15.1,1.51-27.95,3.91,9.91-2.46,19.83-4.92,29.74-7.38-1.86-2.35-3.73-4.7-5.59-7.04-2.11.31-5.27.83-9.06,1.68-11.11,2.5-16.12,5.27-22.81,7.27-4.92,1.47-12.03,1.76-26.04,2.28-7.75.29-18.06.51-30.31.29,2.9-6.35,7.47-15.43,14.2-25.6,12.6-19.04,23.83-28.4,22.58-29.96-1.08-1.36-11.23,3.61-51.65,31.98Z"/>
    <path class="cls-1" d="m405.96,52.5c1.59-7.38,4.58-17.47,10.52-28.42,5.6-10.31,11.96-17.98,17.04-23.24-6.33,1.4-13.33,3.63-20.53,7.21-30.56,15.15-43.86,43.89-48.45,55.48-7.56-5.61-17.11-6.72-24.47-2.76-5.8,3.13-8.38,8.41-9.27,10.53-3.14.54-3.82,1.1-3.84,1.5-.07,1.35,6.95,1.68,13.45,5.18,6.45,3.48,9.46,8.51,11.27,10.87,9.12,11.8,34.39,15.76,52.53,12.54,17.48-3.11,32.96-13.72,53.78-21.97,1.48-.59,4.97-1.95,9.77-2.77,5.76-1,10.58-.74,13.53-.42,2.14-4.15,3.49-5.88,4.37-6.64.06-.05.16-.13.14-.21-.18-.79-11.28,1.13-20.88,2.93,7.4-1.84,14.81-3.68,22.21-5.52-1.39-1.76-2.78-3.51-4.18-5.27-1.58.23-3.94.62-6.76,1.25-8.3,1.87-12.04,3.94-17.04,5.43-3.68,1.1-8.98,1.32-19.45,1.71-5.79.22-13.49.38-22.64.22,2.17-4.75,5.58-11.53,10.61-19.14,9.41-14.24,17.8-21.23,16.87-22.4-.81-1.02-8.39,2.7-38.58,23.9Z"/>
    <path class="cls-1" d="m242.28,564.52c4.87-22.58,14.03-53.43,32.2-86.9,17.13-31.54,36.61-54.99,52.14-71.05-19.38,4.27-40.78,11.11-62.84,22.04-93.51,46.34-134.23,134.2-148.27,169.64-23.15-17.16-52.37-20.55-74.89-8.43-17.76,9.56-25.64,25.71-28.37,32.2-9.61,1.66-11.69,3.35-11.76,4.6-.22,4.12,21.28,5.14,41.15,15.85,19.73,10.63,28.94,26.03,34.5,33.23,27.92,36.1,105.26,48.2,160.76,38.34,53.5-9.51,100.87-41.95,164.59-67.17,4.53-1.79,15.2-5.95,29.91-8.48,17.64-3.04,32.37-2.25,41.4-1.28,6.54-12.68,10.68-17.99,13.38-20.31.19-.16.48-.4.42-.64-.56-2.42-34.52,3.45-63.9,8.95,22.66-5.62,45.32-11.25,67.98-16.87-4.26-5.37-8.52-10.73-12.78-16.1-4.83.71-12.05,1.89-20.7,3.83-25.4,5.71-36.85,12.04-52.14,16.61-11.25,3.36-27.49,4.03-59.52,5.22-17.72.66-41.29,1.16-69.29.66,6.63-14.53,17.07-35.26,32.46-58.53,28.81-43.53,54.47-64.92,51.63-68.5-2.47-3.11-25.67,8.26-118.08,73.1Z"/>
  </g>
</svg>