<?xml version="1.0" encoding="UTF-8"?>
<svg id="Calque_2" data-name="Calque 2" xmlns="http://www.w3.org/2000/svg" viewBox="0 0 962.76 865.77">
  <defs>
    <style>
      .cls-1 {
        stroke: #000;
        stroke-miterlimit: 10;
      }
    </style>
  </defs>
  <g id="oiseau_02">
    <path class="cls-1" d="m785.12,197.62c2.13-9.88,6.14-23.37,14.09-38.01,7.49-13.8,16.01-24.05,22.81-31.08-8.48,1.87-17.84,4.86-27.49,9.64-40.91,20.27-58.72,58.7-64.86,74.21-10.13-7.51-22.91-8.99-32.76-3.69-7.77,4.18-11.22,11.25-12.41,14.09-4.2.73-5.11,1.46-5.14,2.01-.1,1.8,9.31,2.25,18,6.93,8.63,4.65,12.66,11.39,15.09,14.53,12.21,15.79,46.05,21.08,70.32,16.77,23.41-4.16,44.12-18.35,72-29.38,1.98-.78,6.65-2.6,13.08-3.71,7.72-1.33,14.16-.99,18.11-.56,2.86-5.55,4.67-7.87,5.85-8.89.08-.07.21-.18.19-.28-.24-1.06-15.1,1.51-27.95,3.91,9.91-2.46,19.83-4.92,29.74-7.38-1.86-2.35-3.73-4.7-5.59-7.04-2.11.31-5.27.83-9.06,1.68-11.11,2.5-16.12,5.27-22.81,7.27-4.92,1.47-12.03,1.76-26.04,2.28-7.75.29-18.06.51-30.31.29,2.9-6.35,7.47-15.43,14.2-25.6,12.6-19.04,23.83-28.4,22.58-29.96-1.08-1.36-11.23,3.61-51.65,31.98Z"/>
    <path class="cls-1" d="m376.04,573.04c2.13-9.88,6.14-23.37,14.09-38.01,7.49-13.8,16.01-24.05,22.81-31.08-8.48,1.87-17.84,4.86-27.49,9.64-40.91,20.27-58.72,58.7-64.86,74.21-10.13-7.51-22.91-8.99-32.76-3.69-7.77,4.18-11.22,11.25-12.41,14.09-4.2.73-5.11,1.46-5.14,2.01-.1,1.8,9.31,2.25,18,6.93,8.63,4.65,12.66,11.39,15.09,14.53,12.21,15.79,46.05,21.08,70.32,16.77,23.41-4.16,44.12-18.35,72-29.38,1.98-.78,6.65-2.6,13.08-3.71,7.72-1.33,14.16-.99,18.11-.56,2.86-5.55,4.67-7.87,5.85-8.89.08-.07.21-.18.19-.28-.24-1.06-15.1,1.51-27.95,3.91,9.91-2.46,19.83-4.92,29.74-7.38-1.86-2.35-3.73-4.7-5.59-7.04-2.11.31-5.27.83-9.06,1.68-11.11,2.5-16.12,5.27-22.81,7.27-4.92,1.47-12.03,1.76-26.04,2.28-7.75.29-18.06.51-30.31.29,2.9-6.35,7.47-15.43,14.2-25.6,12.6-19.04,23.83-28.4,22.58-29.96-1.08-1.36-11.23,3.61-51.65,31.98Z"/>
    <path class="cls-1" d="m141.04,647.74c2.13-9.88,6.14-23.37,14.09-38.01,7.49-13.8,16.01-24.05,22.81-31.08-8.48,1.87-17.84,4.86-27.49,9.64-40.91,20.27-58.72,58.7-64.86,74.21-10.13-7.51-22.91-8.99-32.76-3.69-7.77,4.18-11.22,11.25-12.41,14.09-4.2.73-5.11,1.46-5.14,2.01-.1,1.8,9.31,2.25,18,6.93,8.63,4.65,12.66,11.39,15.09,14.53,12.21,15.79,46.05,21.08,70.32,16.77,23.41-4.16,44.12-18.35,72-29.38,1.98-.78,6.65-2.6,13.08-3.71,7.72-1.33,14.16-.99,18.11-.56,2.86-5.55,4.67-7.87,5.85-8.89.08-.07.21-.18.19-.28-.24-1.06-15.1,1.51-27.95,3.91,9.91-2.46,19.83-4.92,29.74-7.38-1.86-2.35-3.73-4.7-5.59-7.04-2.11.31-5.27.83-9.06,1.68-11.11,2.5-16.12,5.27-22.81,7.27-4.92,1.47-12.03,1.76-26.04,2.28-7.75.29-18.06.51-30.31.29,2.9-6.35,7.47-15.43,14.2-25.6,12.6-19.04,23.83-28.4,22.58-29.96-1.08-1.36-11.23,3.61-51.65,31.98Z"/>
    <path class="cls-1" d="m853.21,494.83c2.13-9.88,6.14-23.37,14.09-38.01,7.49-13.8,16.01-24.05,22.81-31.08-8.48,1.87-17.84,4.86-27.49,9.64-40.91,20.27-58.72,58.7-64.86,74.21-10.13-7.51-22.91-8.99-32.76-3.69-7.77,4.18-11.22,11.25-12.41,14.09-4.2.73-5.11,1.46-5.14,2.01-.1,1.8,9.31,2.25,18,6.93,8.63,4.65,12.66,11.39,15.09,14.53,12.21,15.79,46.05,21.08,70.32,16.77,23.41-4.16,44.12-18.35,72-29.38,1.98-.78,6.65-2.6,13.08-3.71,7.72-1.33,14.16-.99,18.11-.56,2.86-5.55,4.67-7.87,5.85-8.89.08-.07.21-.18.19-.28-.24-1.06-15.1,1.51-27.95,3.91,9.91-2.46,19.83-4.92,29.74-7.38-1.86-2.35-3.73-4.7-5.59-7.04-2.11.31-5.27.83-9.06,1.68-11.11,2.5-16.12,5.27-22.81,7.27-4.92,1.47-12.03,1.76-26.04,2.28-7.75.29-18.06.51-30.31.29,2.9-6.35,7.47-15.43,14.2-25.6,12.6-19.04,23.83-28.4,22.58-29.96-1.08-1.36-11.23,3.61-51.65,31.98Z"/>
    <path class="cls-1" d="m351.78,398.63c2.13-9.88,6.14-23.37,14.09-38.01,7.49-13.8,16.01-24.05,22.81-31.08-8.48,1.87-17.84,4.86-27.49,9.64-40.91,20.27-58.72,58.7-64.86,74.21-10.13-7.51-22.91-8.99-32.76-3.69-7.77,4.18-11.22,11.25-12.41,14.09-4.2.73-5.11,1.46-5.14,2.01-.1,1.8,9.31,2.25,18,6.93,8.63,4.65,12.66,11.39,15.09,14.53,12.21,15.79,46.05,21.08,70.32,16.77,23.41-4.16,44.12-18.35,72-29.38,1.98-.78,6.65-2.6,13.08-3.71,7.72-1.33,14.16-.99,18.11-.56,2.86-5.55,4.67-7.87,5.85-8.89.08-.07.21-.18.19-.28-.24-1.06-15.1,1.51-27.95,3.91,9.91-2.46,19.83-4.92,29.74-7.38-1.86-2.35-3.73-4.7-5.59-7.04-2.11.31-5.27.83-9.06,1.68-11.11,2.5-16.12,5.27-22.81,7.27-4.92,1.47-12.03,1.76-26.04,2.28-7.75.29-18.06.51-30.31.29,2.9-6.35,7.47-15.43,14.2-25.6,12.6-19.04,23.83-28.4,22.58-29.96-1.08-1.36-11.23,3.61-51.65,31.98Z"/>
    <path class="cls-1" d="m581.2,385.33c2.13-9.88,6.14-23.37,14.09-38.01,7.49-13.8,16.01-24.05,22.81-31.08-8.48,1.87-17.84,4.86-27.49,9.64-40.91,20.27-58.72,58.7-64.86,74.21-10.13-7.51-22.91-8.99-32.76-3.69-7.77,4.18-11.22,11.25-12.41,14.09-4.2.73-5.11,1.46-5.14,2.01-.1,1.8,9.31,2.25,18,6.93,8.63,4.65,12.66,11.39,15.09,14.53,12.21,15.79,46.05,21.08,70.32,16.77,23.41-4.16,44.12-18.35,72-29.38,1.98-.78,6.65-2.6,13.08-3.71,7.72-1.33,14.16-.99,18.11-.56,2.86-5.55,4.67-7.87,5.85-8.89.08-.07.21-.18.19-.28-.24-1.06-15.1,1.51-27.95,3.91,9.91-2.46,19.83-4.92,29.74-7.38-1.86-2.35-3.73-4.7-5.59-7.04-2.11.31-5.27.83-9.06,1.68-11.11,2.5-16.12,5.27-22.81,7.27-4.92,1.47-12.03,1.76-26.04,2.28-7.75.29-18.06.51-30.31.29,2.9-6.35,7.47-15.43,14.2-25.6,12.6-19.04,23.83-28.4,22.58-29.96-1.08-1.36-11.23,3.61-51.65,31.98Z"/>
    <path class="cls-1" d="m483.26,197.62c2.13-9.88,6.14-23.37,14.09-38.01,7.49-13.8,16.01-24.05,22.81-31.08-8.48,1.87-17.84,4.86-27.49,9.64-40.91,20.27-58.72,58.7-64.86,74.21-10.13-7.51-22.91-8.99-32.76-3.69-7.77,4.18-11.22,11.25-12.41,14.09-4.2.73-5.11,1.46-5.14,2.01-.1,1.8,9.31,2.25,18,6.93,8.63,4.65,12.66,11.39,15.09,14.53,12.21,15.79,46.05,21.08,70.32,16.77,23.41-4.16,44.12-18.35,72-29.38,1.98-.78,6.65-2.6,13.08-3.71,7.72-1.33,14.16-.99,18.11-.56,2.86-5.55,4.67-7.87,5.85-8.89.08-.07.21-.18.19-.28-.24-1.06-15.1,1.51-27.95,3.91,9.91-2.46,19.83-4.92,29.74-7.38-1.86-2.35-3.73-4.7-5.59-7.04-2.11.31-5.27.83-9.06,1.68-11.11,2.5-16.12,5.27-22.81,7.27-4.92,1.47-12.03,1.76-26.04,2.28-7.75.29-18.06.51-30.31.29,2.9-6.35,7.47-15.43,14.2-25.6,12.6-19.04,23.83-28.4,22.58-29.96-1.08-1.36-11.23,3.61-51.65,31.98Z"/>
    <path class="cls-1" d="m629.72,774.21c2.13-9.88,6.14-23.37,14.09-38.01,7.49-13.8,16.01-24.05,22.81-31.08-8.48,1.87-17.84,4.86-27.49,9.64-40.91,20.27-58.72,58.7-64.86,74.21-10.13-7.51-22.91-8.99-32.76-3.69-7.77,4.18-11.22,11.25-12.41,14.09-4.2.73-5.11,1.46-5.14,2.01-.1,1.8,9.31,2.25,18,6.93,8.63,4.65,12.66,11.39,15.09,14.53,12.21,15.79,46.05,21.08,70.32,16.77,23.41-4.16,44.12-18.35,72-29.38,1.98-.78,6.65-2.6,13.08-3.71,7.72-1.33,14.16-.99,18.11-.56,2.86-5.55,4.67-7.87,5.85-8.89.08-.07.21-.18.19-.28-.24-1.06-15.1,1.51-27.95,3.91,9.91-2.46,19.83-4.92,29.74-7.38-1.86-2.35-3.73-4.7-5.59-7.04-2.11.31-5.27.83-9.06,1.68-11.11,2.5-16.12,5.27-22.81,7.27-4.92,1.47-12.03,1.76-26.04,2.28-7.75.29-18.06.51-30.31.29,2.9-6.35,7.47-15.43,14.2-25.6,12.6-19.04,23.83-28.4,22.58-29.96-1.08-1.36-11.23,3.61-51.65,31.98Z"/>
    <path class="cls-1" d="m351.78,798.42c2.13-9.88,6.14-23.37,14.09-38.01,7.49-13.8,16.01-24.05,22.81-31.08-8.48,1.87-17.84,4.86-27.49,9.64-40.91,20.27-58.72,58.7-64.86,74.21-10.13-7.51-22.91-8.99-32.76-3.69-7.77,4.18-11.22,11.25-12.41,14.09-4.2.73-5.11,1.46-5.14,2.01-.1,1.8,9.31,2.25,18,6.93,8.63,4.65,12.66,11.39,15.09,14.53,12.21,15.79,46.05,21.08,70.32,16.77,23.41-4.16,44.12-18.35,72-29.38,1.98-.78,6.65-2.6,13.08-3.71,7.72-1.33,14.16-.99,18.11-.56,2.86-5.55,4.67-7.87,5.85-8.89.08-.07.21-.18.19-.28-.24-1.06-15.1,1.51-27.95,3.91,9.91-2.46,19.83-4.92,29.74-7.38-1.86-2.35-3.73-4.7-5.59-7.04-2.11.31-5.27.83-9.06,1.68-11.11,2.5-16.12,5.27-22.81,7.27-4.92,1.47-12.03,1.76-26.04,2.28-7.75.29-18.06.51-30.31.29,2.9-6.35,7.47-15.43,14.2-25.6,12.6-19.04,23.83-28.4,22.58-29.96-1.08-1.36-11.23,3.61-51.65,31.98Z"/>
    <path class="cls-1" d="m188.1,265.59c2.13-9.88,6.14-23.37,14.09-38.01,7.49-13.8,16.01-24.05,22.81-31.08-8.48,1.87-17.84,4.86-27.49,9.64-40.91,20.27-58.72,58.7-64.86,74.21-10.13-7.51-22.91-8.99-32.76-3.69-7.77,4.18-11.22,11.25-12.41,14.09-4.2.73-5.11,1.46-5.14,2.01-.1,1.8,9.31,2.25,18,6.93,8.63,4.65,12.66,11.39,15.09,14.53,12.21,15.79,46.05,21.08,70.32,16.77,23.41-4.16,44.12-18.35,72-29.38,1.98-.78,6.65-2.6,13.08-3.71,7.72-1.33,14.16-.99,18.11-.56,2.86-5.55,4.67-7.87,5.85-8.89.08-.07.21-.18.19-.28-.24-1.06-15.1,1.51-27.95,3.91,9.91-2.46,19.83-4.92,29.74-7.38-1.86-2.35-3.73-4.7-5.59-7.04-2.11.31-5.27.83-9.06,1.68-11.11,2.5-16.12,5.27-22.81,7.27-4.92,1.47-12.03,1.76-26.04,2.28-7.75.29-18.06.51-30.31.29,2.9-6.35,7.47-15.43,14.2-25.6,12.6-19.04,23.83-28.4,22.58-29.96-1.08-1.36-11.23,3.61-51.65,31.98Z"/>
    <path class="cls-1" d="m106.26,472.42c2.13-9.88,6.14-23.37,14.09-38.01,7.49-13.8,16.01-24.05,22.81-31.08-8.48,1.87-17.84,4.86-27.49,9.64-40.91,20.27-58.72,58.7-64.86,74.21-10.13-7.51-22.91-8.99-32.76-3.69-7.77,4.18-11.22,11.25-12.41,14.09-4.2.73-5.11,1.46-5.14,2.01-.1,1.8,9.31,2.25,18,6.93,8.63,4.65,12.66,11.39,15.09,14.53,12.21,15.79,46.05,21.08,70.32,16.77,23.41-4.16,44.12-18.35,72-29.38,1.98-.78,6.65-2.6,13.08-3.71,7.72-1.33,14.16-.99,18.11-.56,2.86-5.55,4.67-7.87,5.85-8.89.08-.07.21-.18.19-.28-.24-1.06-15.1,1.51-27.95,3.91,9.91-2.46,19.83-4.92,29.74-7.38-1.86-2.35-3.73-4.7-5.59-7.04-2.11.31-5.27.83-9.06,1.68-11.11,2.5-16.12,5.27-22.81,7.27-4.92,1.47-12.03,1.76-26.04,2.28-7.75.29-18.06.51-30.31.29,2.9-6.35,7.47-15.43,14.2-25.6,12.6-19.04,23.83-28.4,22.58-29.96-1.08-1.36-11.23,3.61-51.65,31.98Z"/>
    <path class="cls-1" d="m638.77,579.77c2.13-9.88,6.14-23.37,14.09-38.01,7.49-13.8,16.01-24.05,22.81-31.08-8.48,1.87-17.84,4.86-27.49,9.64-40.91,20.27-58.72,58.7-64.86,74.21-10.13-7.51-22.91-8.99-32.76-3.69-7.77,4.18-11.22,11.25-12.41,14.09-4.2.73-5.11,1.46-5.14,2.01-.1,1.8,9.31,2.25,18,6.93,8.63,4.65,12.66,11.39,15.09,14.53,12.21,15.79,46.05,21.08,70.32,16.77,23.41-4.16,44.12-18.35,72-29.38,1.98-.78,6.65-2.6,13.08-3.71,7.72-1.33,14.16-.99,18.11-.56,2.86-5.55,4.67-7.87,5.85-8.89.08-.07.21-.18.19-.28-.24-1.06-15.1,1.51-27.95,3.91,9.91-2.46,19.83-4.92,29.74-7.38-1.86-2.35-3.73-4.7-5.59-7.04-2.11.31-5.27.83-9.06,1.68-11.11,2.5-16.12,5.27-22.81,7.27-4.92,1.47-12.03,1.76-26.04,2.28-7.75.29-18.06.51-30.31.29,2.9-6.35,7.47-15.43,14.2-25.6,12.6-19.04,23.83-28.4,22.58-29.96-1.08-1.36-11.23,3.61-51.65,31.98Z"/>
    <path class="cls-1" d="m312.87,80.67c2.13-9.88,6.14-23.37,14.09-38.01,7.49-13.8,16.01-24.05,22.81-31.08-8.48,1.87-17.84,4.86-27.49,9.64-40.91,20.27-58.72,58.7-64.86,74.21-10.13-7.51-22.91-8.99-32.76-3.69-7.77,4.18-11.22,11.25-12.41,14.09-4.2.73-5.11,1.46-5.14,2.01-.1,1.8,9.31,2.25,18,6.93,8.63,4.65,12.66,11.39,15.09,14.53,12.21,15.79,46.05,21.08,70.32,16.77,23.41-4.16,44.12-18.35,72-29.38,1.98-.78,6.65-2.6,13.08-3.71,7.72-1.33,14.16-.99,18.11-.56,2.86-5.55,4.67-7.87,5.85-8.89.08-.07.21-.18.19-.28-.24-1.06-15.1,1.51-27.95,3.91,9.91-2.46,19.83-4.92,29.74-7.38-1.86-2.35-3.73-4.7-5.59-7.04-2.11.31-5.27.83-9.06,1.68-11.11,2.5-16.12,5.27-22.81,7.27-4.92,1.47-12.03,1.76-26.04,2.28-7.75.29-18.06.51-30.31.29,2.9-6.35,7.47-15.43,14.2-25.6,12.6-19.04,23.83-28.4,22.58-29.96-1.08-1.36-11.23,3.61-51.65,31.98Z"/>
    <path class="cls-1" d="m853.21,662.48c2.13-9.88,6.14-23.37,14.09-38.01,7.49-13.8,16.01-24.05,22.81-31.08-8.48,1.87-17.84,4.86-27.49,9.64-40.91,20.27-58.72,58.7-64.86,74.21-10.13-7.51-22.91-8.99-32.76-3.69-7.77,4.18-11.22,11.25-12.41,14.09-4.2.73-5.11,1.46-5.14,2.01-.1,1.8,9.31,2.25,18,6.93,8.63,4.65,12.66,11.39,15.09,14.53,12.21,15.79,46.05,21.08,70.32,16.77,23.41-4.16,44.12-18.35,72-29.38,1.98-.78,6.65-2.6,13.08-3.71,7.72-1.33,14.16-.99,18.11-.56,2.86-5.55,4.67-7.87,5.85-8.89.08-.07.21-.18.19-.28-.24-1.06-15.1,1.51-27.95,3.91,9.91-2.46,19.83-4.92,29.74-7.38-1.86-2.35-3.73-4.7-5.59-7.04-2.11.31-5.27.83-9.06,1.68-11.11,2.5-16.12,5.27-22.81,7.27-4.92,1.47-12.03,1.76-26.04,2.28-7.75.29-18.06.51-30.31.29,2.9-6.35,7.47-15.43,14.2-25.6,12.6-19.04,23.83-28.4,22.58-29.96-1.08-1.36-11.23,3.61-51.65,31.98Z"/>
    <path class="cls-1" d="m661.69,69.94c2.13-9.88,6.14-23.37,14.09-38.01,7.49-13.8,16.01-24.05,22.81-31.08-8.48,1.87-17.84,4.86-27.49,9.64-40.91,20.27-58.72,58.7-64.86,74.21-10.13-7.51-22.91-8.99-32.76-3.69-7.77,4.18-11.22,11.25-12.41,14.09-4.2.73-5.11,1.46-5.14,2.01-.1,1.8,9.31,2.25,18,6.93,8.63,4.65,12.66,11.39,15.09,14.53,12.21,15.79,46.05,21.08,70.32,16.77,23.41-4.16,44.12-18.35,72-29.38,1.98-.78,6.65-2.6,13.08-3.71,7.72-1.33,14.16-.99,18.11-.56,2.86-5.55,4.67-7.87,5.85-8.89.08-.07.21-.18.19-.28-.24-1.06-15.1,1.51-27.95,3.91,9.91-2.46,19.83-4.92,29.74-7.38-1.86-2.35-3.73-4.7-5.59-7.04-2.11.31-5.27.83-9.06,1.68-11.11,2.5-16.12,5.27-22.81,7.27-4.92,1.47-12.03,1.76-26.04,2.28-7.75.29-18.06.51-30.31.29,2.9-6.35,7.47-15.43,14.2-25.6,12.6-19.04,23.83-28.4,22.58-29.96-1.08-1.36-11.23,3.61-51.65,31.98Z"/>
    <path class="cls-1" d="m785.12,352.57c2.13-9.88,6.14-23.37,14.09-38.01,7.49-13.8,16.01-24.05,22.81-31.08-8.48,1.87-17.84,4.86-27.49,9.64-40.91,20.27-58.72,58.7-64.86,74.21-10.13-7.51-22.91-8.99-32.76-3.69-7.77,4.18-11.22,11.25-12.41,14.09-4.2.73-5.11,1.46-5.14,2.01-.1,1.8,9.31,2.25,18,6.93,8.63,4.65,12.66,11.39,15.09,14.53,12.21,15.79,46.05,21.08,70.32,16.77,23.41-4.16,44.12-18.35,72-29.38,1.98-.78,6.65-2.6,13.08-3.71,7.72-1.33,14.16-.99,18.11-.56,2.86-5.55,4.67-7.87,5.85-8.89.08-.07.21-.18.19-.28-.24-1.06-15.1,1.51-27.95,3.91,9.91-2.46,19.83-4.92,29.74-7.38-1.86-2.35-3.73-4.7-5.59-7.04-2.11.31-5.27.83-9.06,1.68-11.11,2.5-16.12,5.27-22.81,7.27-4.92,1.47-12.03,1.76-26.04,2.28-7.75.29-18.06.51-30.31.29,2.9-6.35,7.47-15.43,14.2-25.6,12.6-19.04,23.83-28.4,22.58-29.96-1.08-1.36-11.23,3.61-51.65,31.98Z"/>
  </g>
</svg>